<svg width="14" height="14" viewBox="0 0 14 14" fill="none" xmlns="http://www.w3.org/2000/svg">
<path d="M11.375 4.95831C11.375 7.37453 9.41622 9.33331 7 9.33331C4.58378 9.33331 2.625 7.37453 2.625 4.95831C2.625 2.54209 4.58378 0.583313 7 0.583313C9.41622 0.583313 11.375 2.54209 11.375 4.95831Z" fill="#DA6FA0" fill-opacity="0.3"/>
<path d="M11.9584 4.95833C11.9584 2.22424 9.73417 0 7.00008 0C4.26599 0 2.04175 2.22424 2.04175 4.95833C2.04175 7.49461 3.95709 9.58911 6.41675 9.87935V11.0833H5.25008C4.92808 11.0833 4.66675 11.3447 4.66675 11.6667C4.66675 11.9887 4.92808 12.25 5.25008 12.25H6.41675V13.4167C6.41675 13.7387 6.67808 14 7.00008 14C7.32208 14 7.58342 13.7387 7.58342 13.4167V12.25H8.75008C9.07208 12.25 9.33342 11.9887 9.33342 11.6667C9.33342 11.3447 9.07208 11.0833 8.75008 11.0833H7.58342V9.87935C10.0431 9.58911 11.9584 7.49461 11.9584 4.95833ZM3.20841 4.95833C3.20841 2.86768 4.90942 1.16667 7.00008 1.16667C9.09074 1.16667 10.7917 2.86768 10.7917 4.95833C10.7917 7.04899 9.09074 8.75 7.00008 8.75C4.90942 8.75 3.20841 7.04899 3.20841 4.95833Z" fill="#DA6FA0"/>
</svg>
