<svg width="85" height="20" viewBox="0 0 85 20" fill="none" xmlns="http://www.w3.org/2000/svg">
<path d="M23.5888 6.2122H21.863V5.19799H26.4835V6.2122H24.7579V11.2838H23.5888V6.2122Z" fill="#4C565C"/>
<path d="M28.5621 4.18379C28.998 3.91875 29.4248 3.6539 29.7959 3.37047L30.2321 4.04647C29.8147 4.34829 29.4711 4.54918 28.9702 4.80502L28.5621 4.18379ZM27.2722 5.19799H31.0576V6.2122H28.4413V7.68373H30.8537V8.69773H28.4413V10.27H31.0576V11.2838H27.2722V5.19799Z" fill="#4C565C"/>
<path d="M31.9859 6.87042C31.9859 5.75527 32.6447 5.10685 34.1846 5.10685C34.7601 5.10685 35.3539 5.17981 35.8644 5.30794L35.7345 6.30415C35.2334 6.2122 34.6489 6.14864 34.222 6.14864C33.4149 6.14864 33.155 6.42248 33.155 7.0715V9.41092C33.155 10.0595 33.4149 10.3334 34.222 10.3334C34.6489 10.3334 35.2334 10.27 35.7345 10.1781L35.8644 11.1741C35.3539 11.3024 34.7601 11.3754 34.1846 11.3754C32.6447 11.3754 31.9859 10.7265 31.9859 9.6116V6.87042Z" fill="#4C565C"/>
<path d="M37.9797 6.66933V11.2838H36.8386V5.19799H38.3972L40.7447 9.82167V5.19799H41.8858V11.2838H40.3271L37.9797 6.66933Z" fill="#4C565C"/>
<path d="M44.354 11.2838H43.1849V5.19799H44.354V11.2838Z" fill="#4C565C"/>
<path d="M45.5141 6.87042C45.5141 5.75527 46.1729 5.10685 47.713 5.10685C48.2883 5.10685 48.8821 5.17981 49.3924 5.30794L49.2627 6.30415C48.7616 6.2122 48.1771 6.14864 47.7502 6.14864C46.9431 6.14864 46.6832 6.42248 46.6832 7.0715V9.41092C46.6832 10.0595 46.9431 10.3334 47.7502 10.3334C48.1771 10.3334 48.7616 10.27 49.2627 10.1781L49.3924 11.1741C48.8821 11.3024 48.2883 11.3754 47.713 11.3754C46.1729 11.3754 45.5141 10.7265 45.5141 9.6116V6.87042Z" fill="#4C565C"/>
<path d="M51.2574 9.43794C51.2574 10.0138 51.5542 10.361 52.4263 10.361C53.2986 10.361 53.5952 10.0138 53.5952 9.43794V7.04375C53.5952 6.46848 53.2986 6.12089 52.4263 6.12089C51.5542 6.12089 51.2574 6.46848 51.2574 7.04375V9.43794ZM54.7643 9.5019C54.7643 10.5163 54.1705 11.3754 52.4263 11.3754C50.6819 11.3754 50.0881 10.5163 50.0881 9.5019V6.98018C50.0881 5.96538 50.6819 5.10688 52.4263 5.10688C54.1705 5.10688 54.7643 5.96538 54.7643 6.98018V9.5019Z" fill="#4C565C"/>
<path d="M58.4668 10.7995H61.2502V11.2838H57.9196V5.19802H58.4668V10.7995Z" fill="#4C565C"/>
<path d="M63.0413 11.2838H62.4938V5.19799H63.0413V11.2838Z" fill="#4C565C"/>
<path d="M66.3074 11.3754C65.7693 11.3754 65.0917 11.2839 64.563 11.0828L64.6651 10.644C65.2216 10.8087 65.7877 10.8911 66.326 10.8911C67.3835 10.8911 67.6712 10.5803 67.6712 9.80372C67.6712 8.86247 67.6618 8.76193 66.2888 8.45112C64.7949 8.11332 64.628 7.84787 64.628 6.62379C64.628 5.62758 64.9989 5.10688 66.5484 5.10688C67.0867 5.10688 67.7269 5.19803 68.1443 5.31676L68.0793 5.77409C67.6248 5.67335 67.0495 5.5912 66.567 5.5912C65.3425 5.5912 65.1754 5.88343 65.1754 6.64178C65.1754 7.6286 65.2032 7.67457 66.5022 7.99419C68.1259 8.39655 68.2188 8.62461 68.2188 9.77634C68.2188 10.7722 67.8752 11.3754 66.3074 11.3754Z" fill="#4C565C"/>
<path d="M72.9876 9.26429C72.9876 8.75259 72.6818 8.4054 71.9674 8.4054H70.2414V10.8088H72.1247C72.7095 10.8088 72.9876 10.5258 72.9876 10.041V9.26429ZM72.7925 6.32222C72.7925 5.90167 72.5516 5.67341 72.0229 5.67341H70.2414V7.93048H71.837C72.5146 7.93048 72.7925 7.58308 72.7925 7.09877V6.32222ZM69.6939 11.2839V5.19808H72.0135C72.8485 5.19808 73.3402 5.59125 73.3402 6.39498V7.12635C73.3402 7.61047 73.1361 7.93048 72.6352 8.11317C73.1175 8.17693 73.535 8.5701 73.535 9.2461V10.041C73.535 10.8819 72.9134 11.2839 72.1157 11.2839H69.6939Z" fill="#4C565C"/>
<path d="M78.4618 9.54753V6.93427C78.4618 6.06618 78.0351 5.59126 76.8474 5.59126C75.6597 5.59126 75.2333 6.06618 75.2333 6.93427V9.54753C75.2333 10.416 75.6597 10.8911 76.8474 10.8911C78.0351 10.8911 78.4618 10.416 78.4618 9.54753ZM76.8474 11.3755C75.2611 11.3755 74.6857 10.6077 74.6857 9.56612V6.91588C74.6857 5.87429 75.2611 5.10675 76.8474 5.10675C78.4343 5.10675 79.0095 5.87429 79.0095 6.91588V9.56612C79.0095 10.6077 78.4343 11.3755 76.8474 11.3755Z" fill="#4C565C"/>
<path d="M81.162 9.21883H83.7043L82.4331 5.50841L81.162 9.21883ZM83.8714 9.68495H80.9951L80.4199 11.2838H79.8816L82.0341 5.19799H82.8413L84.994 11.2838H84.4559L83.8714 9.68495Z" fill="#4C565C"/>
<path fill-rule="evenodd" clip-rule="evenodd" d="M12.4367 6.19854H11.7609V11.2795H10.2979V6.19854H9.62354V5.17954H12.4367V6.19854ZM8.834 3.56189L8.83341 12.9C8.83341 14.1107 7.85278 14.7373 6.64329 14.7373C5.4338 14.7373 4.44439 14.2084 4.44439 13.1808H4.44559C4.44559 12.7773 4.77299 12.4501 5.17596 12.4501C5.57912 12.4501 5.90593 12.7773 5.90593 13.1808H5.90673C5.90673 13.927 5.96609 14.4335 6.64329 14.4335C7.37087 14.4335 7.37086 13.9248 7.37086 12.9L7.37147 3.56189C7.37147 2.3524 8.35189 1.72517 9.56178 1.72517C10.7711 1.72517 11.7605 2.25346 11.7605 3.28165H11.7593C11.7593 3.68502 11.4325 4.01202 11.0287 4.01202C10.6256 4.01202 10.2989 3.68502 10.2989 3.28165H10.2979C10.2979 2.53549 10.2388 2.02899 9.56178 2.02899C8.83381 2.02899 8.834 2.53689 8.834 3.56189ZM4.44678 5.17954H5.90513L5.90713 11.2758H4.44539L4.44678 5.17954ZM0 -1.52588e-05V8.23894C0 15.6578 8.10084 19.6318 8.10084 19.6318C8.10084 19.6318 16.2319 15.6578 16.2319 8.23894V-1.52588e-05H0Z" fill="#4C565C"/>
</svg>
