<svg width="224" height="156" viewBox="0 0 224 156" fill="none" xmlns="http://www.w3.org/2000/svg">
<g filter="url(#filter0_d)">
<rect x="5.31604" y="0.160645" width="213.368" height="145.679" rx="4.90501" fill="white"/>
<path d="M5.31604 5.06565C5.31604 2.35669 7.51209 0.160645 10.221 0.160645H213.779C216.488 0.160645 218.684 2.35669 218.684 5.06565V20.2712H5.31604V5.06565Z" fill="#3C4E64"/>
<circle cx="16.1071" cy="10.4612" r="3.43351" fill="#EE7DB1"/>
<circle cx="25.4265" cy="10.4612" r="3.43351" fill="#FFBA69"/>
<circle cx="34.7461" cy="10.4612" r="3.43351" fill="#42CC7E"/>
<path d="M38.6674 110.285C38.6674 110.797 38.4908 111.223 38.1376 111.565C37.7904 111.9 37.2577 112.068 36.5396 112.068H35.3565V114.637H34.5531V108.483H36.5396C37.2341 108.483 37.7609 108.651 38.12 108.987C38.4849 109.322 38.6674 109.755 38.6674 110.285ZM36.5396 111.406C36.9869 111.406 37.3165 111.309 37.5284 111.114C37.7403 110.92 37.8463 110.644 37.8463 110.285C37.8463 109.525 37.4107 109.146 36.5396 109.146H35.3565V111.406H36.5396ZM40.6239 108.104V114.637H39.8205V108.104H40.6239ZM46.5622 112.033C46.5622 112.186 46.5534 112.348 46.5358 112.518H42.6686C42.6981 112.995 42.8599 113.369 43.1542 113.64C43.4544 113.904 43.8164 114.037 44.2402 114.037C44.5875 114.037 44.8759 113.957 45.1055 113.799C45.3409 113.634 45.5057 113.416 45.5999 113.145H46.4651C46.3356 113.61 46.0766 113.99 45.6882 114.284C45.2997 114.573 44.817 114.717 44.2402 114.717C43.7811 114.717 43.3691 114.614 43.0041 114.408C42.6451 114.202 42.3626 113.91 42.1566 113.534C41.9506 113.151 41.8475 112.71 41.8475 112.209C41.8475 111.709 41.9476 111.27 42.1477 110.894C42.3479 110.517 42.6274 110.229 42.9865 110.029C43.3514 109.823 43.7693 109.72 44.2402 109.72C44.6993 109.72 45.1055 109.82 45.4586 110.02C45.8118 110.22 46.0825 110.496 46.2709 110.85C46.4651 111.197 46.5622 111.591 46.5622 112.033ZM45.7323 111.865C45.7323 111.559 45.6646 111.297 45.5292 111.079C45.3939 110.856 45.2085 110.688 44.973 110.576C44.7435 110.458 44.4874 110.399 44.2049 110.399C43.7988 110.399 43.4515 110.529 43.1631 110.788C42.8805 111.047 42.7187 111.406 42.6775 111.865H45.7323ZM47.4771 112.2C47.4771 111.706 47.5771 111.273 47.7773 110.903C47.9774 110.526 48.2511 110.235 48.5984 110.029C48.9515 109.823 49.3429 109.72 49.7726 109.72C50.1964 109.72 50.5643 109.811 50.8763 109.993C51.1882 110.176 51.4207 110.405 51.5737 110.682V109.799H52.386V114.637H51.5737V113.737C51.4148 114.019 51.1764 114.255 50.8586 114.443C50.5466 114.625 50.1817 114.717 49.7638 114.717C49.3341 114.717 48.9456 114.611 48.5984 114.399C48.2511 114.187 47.9774 113.89 47.7773 113.507C47.5771 113.125 47.4771 112.689 47.4771 112.2ZM51.5737 112.209C51.5737 111.844 51.5002 111.527 51.353 111.256C51.2059 110.985 51.0057 110.779 50.7526 110.638C50.5054 110.491 50.2317 110.417 49.9315 110.417C49.6314 110.417 49.3577 110.488 49.1104 110.629C48.8632 110.77 48.6661 110.976 48.5189 111.247C48.3718 111.518 48.2982 111.836 48.2982 112.2C48.2982 112.571 48.3718 112.895 48.5189 113.172C48.6661 113.442 48.8632 113.651 49.1104 113.799C49.3577 113.94 49.6314 114.01 49.9315 114.01C50.2317 114.01 50.5054 113.94 50.7526 113.799C51.0057 113.651 51.2059 113.442 51.353 113.172C51.5002 112.895 51.5737 112.574 51.5737 112.209ZM55.6111 114.717C55.2403 114.717 54.9077 114.655 54.6134 114.531C54.3191 114.402 54.0866 114.225 53.9159 114.002C53.7452 113.772 53.651 113.51 53.6334 113.216H54.4633C54.4869 113.457 54.5987 113.654 54.7988 113.807C55.0048 113.96 55.2726 114.037 55.6023 114.037C55.9083 114.037 56.1497 113.969 56.3262 113.834C56.5028 113.698 56.5911 113.528 56.5911 113.322C56.5911 113.11 56.4969 112.954 56.3086 112.854C56.1202 112.748 55.8289 112.645 55.4345 112.545C55.0755 112.451 54.7812 112.356 54.5516 112.262C54.3279 112.162 54.1337 112.018 53.9689 111.83C53.81 111.635 53.7305 111.382 53.7305 111.07C53.7305 110.823 53.8041 110.597 53.9512 110.391C54.0984 110.185 54.3073 110.023 54.5781 109.905C54.8488 109.781 55.1579 109.72 55.5051 109.72C56.0408 109.72 56.4734 109.855 56.803 110.126C57.1326 110.396 57.3092 110.767 57.3327 111.238H56.5293C56.5116 110.985 56.4086 110.782 56.2203 110.629C56.0378 110.476 55.7906 110.399 55.4787 110.399C55.1902 110.399 54.9607 110.461 54.79 110.585C54.6193 110.708 54.5339 110.87 54.5339 111.07C54.5339 111.229 54.584 111.362 54.684 111.468C54.79 111.568 54.9195 111.65 55.0725 111.715C55.2314 111.774 55.4492 111.841 55.7259 111.918C56.0731 112.012 56.3557 112.106 56.5735 112.2C56.7912 112.289 56.9766 112.424 57.1297 112.607C57.2886 112.789 57.371 113.027 57.3769 113.322C57.3769 113.587 57.3033 113.825 57.1562 114.037C57.009 114.249 56.8001 114.417 56.5293 114.54C56.2644 114.658 55.9584 114.717 55.6111 114.717ZM63.0801 112.033C63.0801 112.186 63.0713 112.348 63.0536 112.518H59.1865C59.2159 112.995 59.3778 113.369 59.6721 113.64C59.9723 113.904 60.3343 114.037 60.7581 114.037C61.1053 114.037 61.3937 113.957 61.6233 113.799C61.8587 113.634 62.0235 113.416 62.1177 113.145H62.983C62.8535 113.61 62.5945 113.99 62.206 114.284C61.8175 114.573 61.3349 114.717 60.7581 114.717C60.2989 114.717 59.8869 114.614 59.522 114.408C59.1629 114.202 58.8804 113.91 58.6744 113.534C58.4684 113.151 58.3654 112.71 58.3654 112.209C58.3654 111.709 58.4655 111.27 58.6656 110.894C58.8657 110.517 59.1453 110.229 59.5043 110.029C59.8693 109.823 60.2872 109.72 60.7581 109.72C61.2172 109.72 61.6233 109.82 61.9765 110.02C62.3296 110.22 62.6004 110.496 62.7887 110.85C62.983 111.197 63.0801 111.591 63.0801 112.033ZM62.2502 111.865C62.2502 111.559 62.1825 111.297 62.0471 111.079C61.9117 110.856 61.7263 110.688 61.4909 110.576C61.2613 110.458 61.0053 110.399 60.7227 110.399C60.3166 110.399 59.9693 110.529 59.6809 110.788C59.3984 111.047 59.2365 111.406 59.1953 111.865H62.2502ZM71.0944 109.799V114.637H70.2909V113.922C70.1379 114.169 69.923 114.364 69.6464 114.505C69.3756 114.64 69.0754 114.708 68.7458 114.708C68.3691 114.708 68.0307 114.631 67.7305 114.478C67.4303 114.319 67.1919 114.084 67.0153 113.772C66.8447 113.46 66.7593 113.08 66.7593 112.633V109.799H67.5539V112.527C67.5539 113.004 67.6746 113.372 67.9159 113.631C68.1572 113.884 68.4868 114.01 68.9048 114.01C69.3344 114.01 69.6729 113.878 69.9201 113.613C70.1673 113.348 70.2909 112.963 70.2909 112.457V109.799H71.0944ZM74.3183 114.717C73.9474 114.717 73.6149 114.655 73.3206 114.531C73.0263 114.402 72.7938 114.225 72.6231 114.002C72.4524 113.772 72.3582 113.51 72.3406 113.216H73.1705C73.194 113.457 73.3059 113.654 73.506 113.807C73.712 113.96 73.9798 114.037 74.3094 114.037C74.6155 114.037 74.8568 113.969 75.0334 113.834C75.21 113.698 75.2983 113.528 75.2983 113.322C75.2983 113.11 75.2041 112.954 75.0157 112.854C74.8274 112.748 74.536 112.645 74.1417 112.545C73.7826 112.451 73.4883 112.356 73.2588 112.262C73.0351 112.162 72.8409 112.018 72.6761 111.83C72.5171 111.635 72.4377 111.382 72.4377 111.07C72.4377 110.823 72.5112 110.597 72.6584 110.391C72.8055 110.185 73.0145 110.023 73.2853 109.905C73.556 109.781 73.865 109.72 74.2123 109.72C74.7479 109.72 75.1806 109.855 75.5102 110.126C75.8398 110.396 76.0164 110.767 76.0399 111.238H75.2365C75.2188 110.985 75.1158 110.782 74.9275 110.629C74.745 110.476 74.4978 110.399 74.1858 110.399C73.8974 110.399 73.6678 110.461 73.4972 110.585C73.3265 110.708 73.2411 110.87 73.2411 111.07C73.2411 111.229 73.2911 111.362 73.3912 111.468C73.4972 111.568 73.6266 111.65 73.7797 111.715C73.9386 111.774 74.1564 111.841 74.433 111.918C74.7803 112.012 75.0628 112.106 75.2806 112.2C75.4984 112.289 75.6838 112.424 75.8368 112.607C75.9958 112.789 76.0782 113.027 76.0841 113.322C76.0841 113.587 76.0105 113.825 75.8633 114.037C75.7162 114.249 75.5072 114.417 75.2365 114.54C74.9716 114.658 74.6655 114.717 74.3183 114.717ZM81.7873 112.033C81.7873 112.186 81.7784 112.348 81.7608 112.518H77.8937C77.9231 112.995 78.085 113.369 78.3793 113.64C78.6794 113.904 79.0414 114.037 79.4652 114.037C79.8125 114.037 80.1009 113.957 80.3305 113.799C80.5659 113.634 80.7307 113.416 80.8249 113.145H81.6901C81.5606 113.61 81.3017 113.99 80.9132 114.284C80.5247 114.573 80.0421 114.717 79.4652 114.717C79.0061 114.717 78.5941 114.614 78.2292 114.408C77.8701 114.202 77.5876 113.91 77.3816 113.534C77.1756 113.151 77.0726 112.71 77.0726 112.209C77.0726 111.709 77.1726 111.27 77.3727 110.894C77.5729 110.517 77.8525 110.229 78.2115 110.029C78.5764 109.823 78.9943 109.72 79.4652 109.72C79.9243 109.72 80.3305 109.82 80.6836 110.02C81.0368 110.22 81.3075 110.496 81.4959 110.85C81.6901 111.197 81.7873 111.591 81.7873 112.033ZM80.9573 111.865C80.9573 111.559 80.8896 111.297 80.7543 111.079C80.6189 110.856 80.4335 110.688 80.198 110.576C79.9685 110.458 79.7124 110.399 79.4299 110.399C79.0238 110.399 78.6765 110.529 78.3881 110.788C78.1056 111.047 77.9437 111.406 77.9025 111.865H80.9573ZM85.2104 112.2C85.2104 111.706 85.3105 111.273 85.5106 110.903C85.7107 110.526 85.9844 110.235 86.3317 110.029C86.6849 109.823 87.0763 109.72 87.506 109.72C87.9298 109.72 88.2976 109.811 88.6096 109.993C88.9216 110.176 89.1541 110.405 89.3071 110.682V109.799H90.1194V114.637H89.3071V113.737C89.1482 114.019 88.9098 114.255 88.5919 114.443C88.28 114.625 87.9151 114.717 87.4971 114.717C87.0675 114.717 86.679 114.611 86.3317 114.399C85.9844 114.187 85.7107 113.89 85.5106 113.507C85.3105 113.125 85.2104 112.689 85.2104 112.2ZM89.3071 112.209C89.3071 111.844 89.2335 111.527 89.0864 111.256C88.9392 110.985 88.7391 110.779 88.486 110.638C88.2388 110.491 87.9651 110.417 87.6649 110.417C87.3647 110.417 87.091 110.488 86.8438 110.629C86.5966 110.77 86.3994 110.976 86.2523 111.247C86.1051 111.518 86.0315 111.836 86.0315 112.2C86.0315 112.571 86.1051 112.895 86.2523 113.172C86.3994 113.442 86.5966 113.651 86.8438 113.799C87.091 113.94 87.3647 114.01 87.6649 114.01C87.9651 114.01 88.2388 113.94 88.486 113.799C88.7391 113.651 88.9392 113.442 89.0864 113.172C89.2335 112.895 89.3071 112.574 89.3071 112.209ZM93.8398 112.209C93.8398 111.709 93.9398 111.273 94.1399 110.903C94.3401 110.526 94.6167 110.235 94.9699 110.029C95.3289 109.823 95.738 109.72 96.1971 109.72C96.7916 109.72 97.2801 109.864 97.6627 110.152C98.0512 110.441 98.3072 110.841 98.4308 111.353H97.5656C97.4832 111.059 97.3213 110.826 97.08 110.655C96.8446 110.485 96.5503 110.399 96.1971 110.399C95.738 110.399 95.3672 110.558 95.0846 110.876C94.8021 111.188 94.6609 111.632 94.6609 112.209C94.6609 112.792 94.8021 113.242 95.0846 113.56C95.3672 113.878 95.738 114.037 96.1971 114.037C96.5503 114.037 96.8446 113.954 97.08 113.79C97.3154 113.625 97.4773 113.389 97.5656 113.083H98.4308C98.3014 113.578 98.0424 113.975 97.6539 114.275C97.2654 114.57 96.7798 114.717 96.1971 114.717C95.738 114.717 95.3289 114.614 94.9699 114.408C94.6167 114.202 94.3401 113.91 94.1399 113.534C93.9398 113.157 93.8398 112.715 93.8398 112.209ZM101.768 114.717C101.314 114.717 100.902 114.614 100.531 114.408C100.167 114.202 99.8781 113.91 99.6662 113.534C99.4602 113.151 99.3572 112.71 99.3572 112.209C99.3572 111.715 99.4632 111.279 99.675 110.903C99.8928 110.52 100.187 110.229 100.558 110.029C100.929 109.823 101.344 109.72 101.803 109.72C102.262 109.72 102.677 109.823 103.048 110.029C103.419 110.229 103.71 110.517 103.922 110.894C104.14 111.27 104.248 111.709 104.248 112.209C104.248 112.71 104.137 113.151 103.913 113.534C103.695 113.91 103.398 114.202 103.021 114.408C102.645 114.614 102.227 114.717 101.768 114.717ZM101.768 114.01C102.056 114.01 102.327 113.943 102.58 113.807C102.833 113.672 103.036 113.469 103.189 113.198C103.348 112.927 103.427 112.598 103.427 112.209C103.427 111.821 103.351 111.491 103.198 111.22C103.045 110.95 102.845 110.75 102.597 110.62C102.35 110.485 102.082 110.417 101.794 110.417C101.5 110.417 101.229 110.485 100.982 110.62C100.74 110.75 100.546 110.95 100.399 111.22C100.252 111.491 100.178 111.821 100.178 112.209C100.178 112.604 100.249 112.936 100.39 113.207C100.537 113.478 100.732 113.681 100.973 113.816C101.214 113.946 101.479 114.01 101.768 114.01ZM111.278 109.711C111.654 109.711 111.99 109.79 112.284 109.949C112.578 110.102 112.811 110.335 112.982 110.647C113.152 110.959 113.238 111.338 113.238 111.785V114.637H112.443V111.9C112.443 111.418 112.322 111.05 112.081 110.797C111.846 110.538 111.525 110.408 111.119 110.408C110.701 110.408 110.368 110.544 110.121 110.814C109.874 111.079 109.75 111.465 109.75 111.971V114.637H108.956V111.9C108.956 111.418 108.835 111.05 108.594 110.797C108.358 110.538 108.037 110.408 107.631 110.408C107.213 110.408 106.881 110.544 106.634 110.814C106.386 111.079 106.263 111.465 106.263 111.971V114.637H105.459V109.799H106.263V110.496C106.422 110.243 106.634 110.049 106.898 109.914C107.169 109.778 107.466 109.711 107.79 109.711C108.196 109.711 108.555 109.802 108.867 109.984C109.179 110.167 109.412 110.435 109.565 110.788C109.7 110.446 109.924 110.182 110.236 109.993C110.548 109.805 110.895 109.711 111.278 109.711ZM115.514 110.691C115.673 110.414 115.908 110.185 116.22 110.002C116.538 109.814 116.906 109.72 117.324 109.72C117.753 109.72 118.142 109.823 118.489 110.029C118.842 110.235 119.119 110.526 119.319 110.903C119.519 111.273 119.619 111.706 119.619 112.2C119.619 112.689 119.519 113.125 119.319 113.507C119.119 113.89 118.842 114.187 118.489 114.399C118.142 114.611 117.753 114.717 117.324 114.717C116.912 114.717 116.547 114.625 116.229 114.443C115.917 114.255 115.678 114.022 115.514 113.746V116.933H114.71V109.799H115.514V110.691ZM118.798 112.2C118.798 111.836 118.724 111.518 118.577 111.247C118.43 110.976 118.23 110.77 117.977 110.629C117.73 110.488 117.456 110.417 117.156 110.417C116.862 110.417 116.588 110.491 116.335 110.638C116.087 110.779 115.887 110.988 115.734 111.265C115.587 111.535 115.514 111.85 115.514 112.209C115.514 112.574 115.587 112.895 115.734 113.172C115.887 113.442 116.087 113.651 116.335 113.799C116.588 113.94 116.862 114.01 117.156 114.01C117.456 114.01 117.73 113.94 117.977 113.799C118.23 113.651 118.43 113.442 118.577 113.172C118.724 112.895 118.798 112.571 118.798 112.2ZM125.122 109.799V114.637H124.319V113.922C124.166 114.169 123.951 114.364 123.674 114.505C123.403 114.64 123.103 114.708 122.774 114.708C122.397 114.708 122.058 114.631 121.758 114.478C121.458 114.319 121.22 114.084 121.043 113.772C120.872 113.46 120.787 113.08 120.787 112.633V109.799H121.582V112.527C121.582 113.004 121.702 113.372 121.944 113.631C122.185 113.884 122.515 114.01 122.932 114.01C123.362 114.01 123.701 113.878 123.948 113.613C124.195 113.348 124.319 112.963 124.319 112.457V109.799H125.122ZM127.613 110.461V113.313C127.613 113.548 127.663 113.716 127.763 113.816C127.863 113.91 128.037 113.957 128.284 113.957H128.876V114.637H128.152C127.704 114.637 127.369 114.534 127.145 114.328C126.922 114.122 126.81 113.784 126.81 113.313V110.461H126.183V109.799H126.81V108.581H127.613V109.799H128.876V110.461H127.613ZM134.418 112.033C134.418 112.186 134.409 112.348 134.392 112.518H130.525C130.554 112.995 130.716 113.369 131.01 113.64C131.31 113.904 131.672 114.037 132.096 114.037C132.443 114.037 132.732 113.957 132.961 113.799C133.197 113.634 133.362 113.416 133.456 113.145H134.321C134.192 113.61 133.933 113.99 133.544 114.284C133.156 114.573 132.673 114.717 132.096 114.717C131.637 114.717 131.225 114.614 130.86 114.408C130.501 114.202 130.219 113.91 130.013 113.534C129.806 113.151 129.703 112.71 129.703 112.209C129.703 111.709 129.804 111.27 130.004 110.894C130.204 110.517 130.483 110.229 130.842 110.029C131.207 109.823 131.625 109.72 132.096 109.72C132.555 109.72 132.961 109.82 133.315 110.02C133.668 110.22 133.938 110.496 134.127 110.85C134.321 111.197 134.418 111.591 134.418 112.033ZM133.588 111.865C133.588 111.559 133.521 111.297 133.385 111.079C133.25 110.856 133.064 110.688 132.829 110.576C132.599 110.458 132.343 110.399 132.061 110.399C131.655 110.399 131.307 110.529 131.019 110.788C130.736 111.047 130.575 111.406 130.533 111.865H133.588ZM136.437 110.585C136.578 110.308 136.778 110.093 137.037 109.94C137.302 109.787 137.623 109.711 137.999 109.711V110.541H137.787C136.887 110.541 136.437 111.029 136.437 112.006V114.637H135.633V109.799H136.437V110.585ZM142.57 110.461V113.313C142.57 113.548 142.62 113.716 142.72 113.816C142.82 113.91 142.994 113.957 143.241 113.957H143.832V114.637H143.108C142.661 114.637 142.325 114.534 142.102 114.328C141.878 114.122 141.766 113.784 141.766 113.313V110.461H141.139V109.799H141.766V108.581H142.57V109.799H143.832V110.461H142.57ZM147.07 114.717C146.617 114.717 146.205 114.614 145.834 114.408C145.469 114.202 145.181 113.91 144.969 113.534C144.763 113.151 144.66 112.71 144.66 112.209C144.66 111.715 144.766 111.279 144.978 110.903C145.196 110.52 145.49 110.229 145.861 110.029C146.232 109.823 146.647 109.72 147.106 109.72C147.565 109.72 147.98 109.823 148.351 110.029C148.721 110.229 149.013 110.517 149.225 110.894C149.442 111.27 149.551 111.709 149.551 112.209C149.551 112.71 149.439 113.151 149.216 113.534C148.998 113.91 148.701 114.202 148.324 114.408C147.947 114.614 147.529 114.717 147.07 114.717ZM147.07 114.01C147.359 114.01 147.63 113.943 147.883 113.807C148.136 113.672 148.339 113.469 148.492 113.198C148.651 112.927 148.73 112.598 148.73 112.209C148.73 111.821 148.654 111.491 148.501 111.22C148.348 110.95 148.148 110.75 147.9 110.62C147.653 110.485 147.385 110.417 147.097 110.417C146.803 110.417 146.532 110.485 146.285 110.62C146.043 110.75 145.849 110.95 145.702 111.22C145.555 111.491 145.481 111.821 145.481 112.209C145.481 112.604 145.552 112.936 145.693 113.207C145.84 113.478 146.034 113.681 146.276 113.816C146.517 113.946 146.782 114.01 147.07 114.01ZM154.074 110.691C154.233 110.414 154.468 110.185 154.78 110.002C155.098 109.814 155.466 109.72 155.884 109.72C156.314 109.72 156.702 109.823 157.049 110.029C157.403 110.235 157.679 110.526 157.879 110.903C158.079 111.273 158.179 111.706 158.179 112.2C158.179 112.689 158.079 113.125 157.879 113.507C157.679 113.89 157.403 114.187 157.049 114.399C156.702 114.611 156.314 114.717 155.884 114.717C155.472 114.717 155.107 114.625 154.789 114.443C154.477 114.255 154.239 114.022 154.074 113.746V116.933H153.271V109.799H154.074V110.691ZM157.358 112.2C157.358 111.836 157.285 111.518 157.138 111.247C156.991 110.976 156.79 110.77 156.537 110.629C156.29 110.488 156.016 110.417 155.716 110.417C155.422 110.417 155.148 110.491 154.895 110.638C154.648 110.779 154.448 110.988 154.295 111.265C154.148 111.535 154.074 111.85 154.074 112.209C154.074 112.574 154.148 112.895 154.295 113.172C154.448 113.442 154.648 113.651 154.895 113.799C155.148 113.94 155.422 114.01 155.716 114.01C156.016 114.01 156.29 113.94 156.537 113.799C156.79 113.651 156.991 113.442 157.138 113.172C157.285 112.895 157.358 112.571 157.358 112.2ZM160.195 110.585C160.336 110.308 160.536 110.093 160.795 109.94C161.06 109.787 161.381 109.711 161.758 109.711V110.541H161.546C160.645 110.541 160.195 111.029 160.195 112.006V114.637H159.392V109.799H160.195V110.585ZM164.95 114.717C164.497 114.717 164.085 114.614 163.714 114.408C163.349 114.202 163.06 113.91 162.849 113.534C162.643 113.151 162.539 112.71 162.539 112.209C162.539 111.715 162.645 111.279 162.857 110.903C163.075 110.52 163.369 110.229 163.74 110.029C164.111 109.823 164.526 109.72 164.985 109.72C165.444 109.72 165.859 109.823 166.23 110.029C166.601 110.229 166.892 110.517 167.104 110.894C167.322 111.27 167.431 111.709 167.431 112.209C167.431 112.71 167.319 113.151 167.095 113.534C166.877 113.91 166.58 114.202 166.204 114.408C165.827 114.614 165.409 114.717 164.95 114.717ZM164.95 114.01C165.238 114.01 165.509 113.943 165.762 113.807C166.015 113.672 166.218 113.469 166.371 113.198C166.53 112.927 166.61 112.598 166.61 112.209C166.61 111.821 166.533 111.491 166.38 111.22C166.227 110.95 166.027 110.75 165.78 110.62C165.533 110.485 165.265 110.417 164.976 110.417C164.682 110.417 164.411 110.485 164.164 110.62C163.923 110.75 163.728 110.95 163.581 111.22C163.434 111.491 163.361 111.821 163.361 112.209C163.361 112.604 163.431 112.936 163.572 113.207C163.72 113.478 163.914 113.681 164.155 113.816C164.397 113.946 164.661 114.01 164.95 114.01ZM169.445 110.691C169.604 110.414 169.839 110.185 170.151 110.002C170.469 109.814 170.837 109.72 171.255 109.72C171.685 109.72 172.073 109.823 172.42 110.029C172.774 110.235 173.05 110.526 173.25 110.903C173.451 111.273 173.551 111.706 173.551 112.2C173.551 112.689 173.451 113.125 173.25 113.507C173.05 113.89 172.774 114.187 172.42 114.399C172.073 114.611 171.685 114.717 171.255 114.717C170.843 114.717 170.478 114.625 170.16 114.443C169.848 114.255 169.61 114.022 169.445 113.746V116.933H168.642V109.799H169.445V110.691ZM172.729 112.2C172.729 111.836 172.656 111.518 172.509 111.247C172.362 110.976 172.161 110.77 171.908 110.629C171.661 110.488 171.387 110.417 171.087 110.417C170.793 110.417 170.519 110.491 170.266 110.638C170.019 110.779 169.819 110.988 169.666 111.265C169.519 111.535 169.445 111.85 169.445 112.209C169.445 112.574 169.519 112.895 169.666 113.172C169.819 113.442 170.019 113.651 170.266 113.799C170.519 113.94 170.793 114.01 171.087 114.01C171.387 114.01 171.661 113.94 171.908 113.799C172.161 113.651 172.362 113.442 172.509 113.172C172.656 112.895 172.729 112.571 172.729 112.2ZM179.177 112.033C179.177 112.186 179.168 112.348 179.151 112.518H175.284C175.313 112.995 175.475 113.369 175.769 113.64C176.069 113.904 176.431 114.037 176.855 114.037C177.202 114.037 177.491 113.957 177.72 113.799C177.956 113.634 178.121 113.416 178.215 113.145H179.08C178.951 113.61 178.692 113.99 178.303 114.284C177.915 114.573 177.432 114.717 176.855 114.717C176.396 114.717 175.984 114.614 175.619 114.408C175.26 114.202 174.977 113.91 174.771 113.534C174.565 113.151 174.462 112.71 174.462 112.209C174.462 111.709 174.563 111.27 174.763 110.894C174.963 110.517 175.242 110.229 175.601 110.029C175.966 109.823 176.384 109.72 176.855 109.72C177.314 109.72 177.72 109.82 178.074 110.02C178.427 110.22 178.697 110.496 178.886 110.85C179.08 111.197 179.177 111.591 179.177 112.033ZM178.347 111.865C178.347 111.559 178.28 111.297 178.144 111.079C178.009 110.856 177.823 110.688 177.588 110.576C177.358 110.458 177.102 110.399 176.82 110.399C176.414 110.399 176.066 110.529 175.778 110.788C175.495 111.047 175.334 111.406 175.292 111.865H178.347ZM181.196 110.585C181.337 110.308 181.537 110.093 181.796 109.94C182.061 109.787 182.382 109.711 182.758 109.711V110.541H182.546C181.646 110.541 181.196 111.029 181.196 112.006V114.637H180.392V109.799H181.196V110.585ZM184.644 108.104V114.637H183.84V108.104H184.644ZM190.335 109.799L187.421 116.915H186.591L187.545 114.584L185.594 109.799H186.485L188.004 113.719L189.505 109.799H190.335ZM42.0467 127.717C41.6758 127.717 41.3433 127.655 41.049 127.531C40.7547 127.402 40.5222 127.225 40.3515 127.002C40.1808 126.772 40.0866 126.51 40.069 126.216H40.8989C40.9224 126.457 41.0343 126.654 41.2344 126.807C41.4404 126.96 41.7082 127.037 42.0378 127.037C42.3439 127.037 42.5852 126.969 42.7618 126.834C42.9384 126.698 43.0267 126.528 43.0267 126.322C43.0267 126.11 42.9325 125.954 42.7441 125.854C42.5558 125.748 42.2644 125.645 41.8701 125.545C41.511 125.451 41.2167 125.356 40.9872 125.262C40.7635 125.162 40.5693 125.018 40.4045 124.83C40.2455 124.635 40.1661 124.382 40.1661 124.07C40.1661 123.823 40.2396 123.597 40.3868 123.391C40.534 123.185 40.7429 123.023 41.0137 122.905C41.2844 122.781 41.5934 122.72 41.9407 122.72C42.4763 122.72 42.909 122.855 43.2386 123.126C43.5682 123.396 43.7448 123.767 43.7683 124.238H42.9649C42.9472 123.985 42.8442 123.782 42.6559 123.629C42.4734 123.476 42.2262 123.399 41.9142 123.399C41.6258 123.399 41.3963 123.461 41.2256 123.585C41.0549 123.708 40.9695 123.87 40.9695 124.07C40.9695 124.229 41.0195 124.362 41.1196 124.468C41.2256 124.568 41.355 124.65 41.5081 124.715C41.667 124.774 41.8848 124.841 42.1614 124.918C42.5087 125.012 42.7912 125.106 43.009 125.2C43.2268 125.289 43.4122 125.424 43.5652 125.607C43.7242 125.789 43.8066 126.027 43.8125 126.322C43.8125 126.587 43.7389 126.825 43.5917 127.037C43.4446 127.249 43.2356 127.417 42.9649 127.54C42.7 127.658 42.3939 127.717 42.0467 127.717ZM49.5157 125.033C49.5157 125.186 49.5068 125.348 49.4892 125.518H45.6221C45.6515 125.995 45.8134 126.369 46.1077 126.64C46.4078 126.904 46.7698 127.037 47.1936 127.037C47.5409 127.037 47.8293 126.957 48.0589 126.799C48.2943 126.634 48.4591 126.416 48.5533 126.145H49.4185C49.289 126.61 49.0301 126.99 48.6416 127.284C48.2531 127.573 47.7705 127.717 47.1936 127.717C46.7345 127.717 46.3225 127.614 45.9576 127.408C45.5985 127.202 45.316 126.91 45.11 126.534C44.904 126.151 44.801 125.71 44.801 125.209C44.801 124.709 44.901 124.27 45.1011 123.894C45.3013 123.517 45.5809 123.229 45.9399 123.029C46.3048 122.823 46.7227 122.72 47.1936 122.72C47.6527 122.72 48.0589 122.82 48.412 123.02C48.7652 123.22 49.0359 123.496 49.2243 123.85C49.4185 124.197 49.5157 124.591 49.5157 125.033ZM48.6857 124.865C48.6857 124.559 48.618 124.297 48.4827 124.079C48.3473 123.856 48.1619 123.688 47.9264 123.576C47.6969 123.458 47.4408 123.399 47.1583 123.399C46.7522 123.399 46.4049 123.529 46.1165 123.788C45.834 124.047 45.6721 124.406 45.6309 124.865H48.6857ZM55.1452 125.033C55.1452 125.186 55.1364 125.348 55.1187 125.518H51.2516C51.281 125.995 51.4429 126.369 51.7372 126.64C52.0374 126.904 52.3994 127.037 52.8232 127.037C53.1704 127.037 53.4588 126.957 53.6884 126.799C53.9238 126.634 54.0886 126.416 54.1828 126.145H55.0481C54.9186 126.61 54.6596 126.99 54.2711 127.284C53.8826 127.573 53.4 127.717 52.8232 127.717C52.364 127.717 51.952 127.614 51.5871 127.408C51.228 127.202 50.9455 126.91 50.7395 126.534C50.5335 126.151 50.4305 125.71 50.4305 125.209C50.4305 124.709 50.5306 124.27 50.7307 123.894C50.9308 123.517 51.2104 123.229 51.5694 123.029C51.9344 122.823 52.3523 122.72 52.8232 122.72C53.2823 122.72 53.6884 122.82 54.0416 123.02C54.3947 123.22 54.6655 123.496 54.8538 123.85C55.0481 124.197 55.1452 124.591 55.1452 125.033ZM54.3153 124.865C54.3153 124.559 54.2476 124.297 54.1122 124.079C53.9768 123.856 53.7914 123.688 53.556 123.576C53.3264 123.458 53.0704 123.399 52.7878 123.399C52.3817 123.399 52.0344 123.529 51.746 123.788C51.4635 124.047 51.3016 124.406 51.2604 124.865H54.3153ZM59.8486 123.461V126.313C59.8486 126.548 59.8986 126.716 59.9987 126.816C60.0987 126.91 60.2724 126.957 60.5196 126.957H61.1111V127.637H60.3871C59.9398 127.637 59.6043 127.534 59.3806 127.328C59.157 127.122 59.0451 126.784 59.0451 126.313V123.461H58.4183V122.799H59.0451V121.581H59.8486V122.799H61.1111V123.461H59.8486ZM64.6406 122.711C65.0055 122.711 65.3351 122.79 65.6294 122.949C65.9237 123.102 66.1533 123.335 66.3181 123.647C66.4888 123.959 66.5741 124.338 66.5741 124.785V127.637H65.7795V124.9C65.7795 124.418 65.6589 124.05 65.4175 123.797C65.1762 123.538 64.8466 123.408 64.4287 123.408C64.0049 123.408 63.6665 123.541 63.4134 123.805C63.1661 124.07 63.0425 124.456 63.0425 124.962V127.637H62.2391V121.104H63.0425V123.488C63.2015 123.24 63.4192 123.049 63.6959 122.914C63.9784 122.778 64.2933 122.711 64.6406 122.711ZM72.4556 125.033C72.4556 125.186 72.4467 125.348 72.4291 125.518H68.562C68.5914 125.995 68.7533 126.369 69.0476 126.64C69.3478 126.904 69.7098 127.037 70.1335 127.037C70.4808 127.037 70.7692 126.957 70.9988 126.799C71.2342 126.634 71.399 126.416 71.4932 126.145H72.3585C72.229 126.61 71.97 126.99 71.5815 127.284C71.193 127.573 70.7104 127.717 70.1335 127.717C69.6744 127.717 69.2624 127.614 68.8975 127.408C68.5384 127.202 68.2559 126.91 68.0499 126.534C67.8439 126.151 67.7409 125.71 67.7409 125.209C67.7409 124.709 67.8409 124.27 68.0411 123.894C68.2412 123.517 68.5208 123.229 68.8798 123.029C69.2448 122.823 69.6627 122.72 70.1335 122.72C70.5927 122.72 70.9988 122.82 71.352 123.02C71.7051 123.22 71.9759 123.496 72.1642 123.85C72.3585 124.197 72.4556 124.591 72.4556 125.033ZM71.6257 124.865C71.6257 124.559 71.558 124.297 71.4226 124.079C71.2872 123.856 71.1018 123.688 70.8664 123.576C70.6368 123.458 70.3808 123.399 70.0982 123.399C69.6921 123.399 69.3448 123.529 69.0564 123.788C68.7739 124.047 68.612 124.406 68.5708 124.865H71.6257ZM77.9801 126.896L79.481 122.799H80.3374L78.4392 127.637H77.5033L75.6051 122.799H76.4703L77.9801 126.896ZM81.6975 122.013C81.5445 122.013 81.415 121.96 81.309 121.854C81.2031 121.748 81.1501 121.619 81.1501 121.466C81.1501 121.313 81.2031 121.183 81.309 121.077C81.415 120.971 81.5445 120.918 81.6975 120.918C81.8446 120.918 81.9682 120.971 82.0683 121.077C82.1743 121.183 82.2272 121.313 82.2272 121.466C82.2272 121.619 82.1743 121.748 82.0683 121.854C81.9682 121.96 81.8446 122.013 81.6975 122.013ZM82.086 122.799V127.637H81.2825V122.799H82.086ZM85.3226 127.717C84.9518 127.717 84.6192 127.655 84.3249 127.531C84.0306 127.402 83.7981 127.225 83.6275 127.002C83.4568 126.772 83.3626 126.51 83.3449 126.216H84.1749C84.1984 126.457 84.3102 126.654 84.5104 126.807C84.7164 126.96 84.9842 127.037 85.3138 127.037C85.6199 127.037 85.8612 126.969 86.0378 126.834C86.2144 126.698 86.3026 126.528 86.3026 126.322C86.3026 126.11 86.2085 125.954 86.0201 125.854C85.8318 125.748 85.5404 125.645 85.146 125.545C84.787 125.451 84.4927 125.356 84.2631 125.262C84.0395 125.162 83.8452 125.018 83.6804 124.83C83.5215 124.635 83.442 124.382 83.442 124.07C83.442 123.823 83.5156 123.597 83.6628 123.391C83.8099 123.185 84.0189 123.023 84.2896 122.905C84.5604 122.781 84.8694 122.72 85.2167 122.72C85.7523 122.72 86.1849 122.855 86.5145 123.126C86.8442 123.396 87.0207 123.767 87.0443 124.238H86.2408C86.2232 123.985 86.1202 123.782 85.9318 123.629C85.7494 123.476 85.5021 123.399 85.1902 123.399C84.9018 123.399 84.6722 123.461 84.5015 123.585C84.3308 123.708 84.2455 123.87 84.2455 124.07C84.2455 124.229 84.2955 124.362 84.3956 124.468C84.5015 124.568 84.631 124.65 84.7841 124.715C84.943 124.774 85.1608 124.841 85.4374 124.918C85.7847 125.012 86.0672 125.106 86.285 125.2C86.5028 125.289 86.6882 125.424 86.8412 125.607C87.0001 125.789 87.0825 126.027 87.0884 126.322C87.0884 126.587 87.0149 126.825 86.8677 127.037C86.7206 127.249 86.5116 127.417 86.2408 127.54C85.976 127.658 85.6699 127.717 85.3226 127.717ZM92.668 122.799V127.637H91.8646V126.922C91.7115 127.169 91.4967 127.364 91.2201 127.505C90.9493 127.64 90.6491 127.708 90.3195 127.708C89.9428 127.708 89.6044 127.631 89.3042 127.478C89.004 127.319 88.7656 127.084 88.589 126.772C88.4183 126.46 88.333 126.08 88.333 125.633V122.799H89.1276V125.527C89.1276 126.004 89.2483 126.372 89.4896 126.631C89.7309 126.884 90.0605 127.01 90.4784 127.01C90.9081 127.01 91.2466 126.878 91.4938 126.613C91.741 126.348 91.8646 125.963 91.8646 125.457V122.799H92.668ZM93.8789 125.2C93.8789 124.706 93.979 124.273 94.1791 123.903C94.3792 123.526 94.6529 123.235 95.0002 123.029C95.3534 122.823 95.7448 122.72 96.1745 122.72C96.5982 122.72 96.9661 122.811 97.2781 122.993C97.59 123.176 97.8225 123.405 97.9756 123.682V122.799H98.7878V127.637H97.9756V126.737C97.8166 127.019 97.5783 127.255 97.2604 127.443C96.9485 127.625 96.5835 127.717 96.1656 127.717C95.7359 127.717 95.3475 127.611 95.0002 127.399C94.6529 127.187 94.3792 126.89 94.1791 126.507C93.979 126.125 93.8789 125.689 93.8789 125.2ZM97.9756 125.209C97.9756 124.844 97.902 124.527 97.7548 124.256C97.6077 123.985 97.4076 123.779 97.1545 123.638C96.9073 123.491 96.6336 123.417 96.3334 123.417C96.0332 123.417 95.7595 123.488 95.5123 123.629C95.2651 123.77 95.0679 123.976 94.9207 124.247C94.7736 124.518 94.7 124.836 94.7 125.2C94.7 125.571 94.7736 125.895 94.9207 126.172C95.0679 126.442 95.2651 126.651 95.5123 126.799C95.7595 126.94 96.0332 127.01 96.3334 127.01C96.6336 127.01 96.9073 126.94 97.1545 126.799C97.4076 126.651 97.6077 126.442 97.7548 126.172C97.902 125.895 97.9756 125.574 97.9756 125.209ZM101.104 121.104V127.637H100.3V121.104H101.104ZM103.042 122.013C102.889 122.013 102.76 121.96 102.654 121.854C102.548 121.748 102.495 121.619 102.495 121.466C102.495 121.313 102.548 121.183 102.654 121.077C102.76 120.971 102.889 120.918 103.042 120.918C103.189 120.918 103.313 120.971 103.413 121.077C103.519 121.183 103.572 121.313 103.572 121.466C103.572 121.619 103.519 121.748 103.413 121.854C103.313 121.96 103.189 122.013 103.042 122.013ZM103.431 122.799V127.637H102.627V122.799H103.431ZM105.555 126.975H107.93V127.637H104.637V126.975L106.985 123.452H104.654V122.799H107.912V123.452L105.555 126.975ZM108.827 125.2C108.827 124.706 108.927 124.273 109.127 123.903C109.327 123.526 109.601 123.235 109.948 123.029C110.301 122.823 110.693 122.72 111.122 122.72C111.546 122.72 111.914 122.811 112.226 122.993C112.538 123.176 112.77 123.405 112.924 123.682V122.799H113.736V127.637H112.924V126.737C112.765 127.019 112.526 127.255 112.208 127.443C111.896 127.625 111.531 127.717 111.114 127.717C110.684 127.717 110.295 127.611 109.948 127.399C109.601 127.187 109.327 126.89 109.127 126.507C108.927 126.125 108.827 125.689 108.827 125.2ZM112.924 125.209C112.924 124.844 112.85 124.527 112.703 124.256C112.556 123.985 112.356 123.779 112.102 123.638C111.855 123.491 111.581 123.417 111.281 123.417C110.981 123.417 110.707 123.488 110.46 123.629C110.213 123.77 110.016 123.976 109.869 124.247C109.722 124.518 109.648 124.836 109.648 125.2C109.648 125.571 109.722 125.895 109.869 126.172C110.016 126.442 110.213 126.651 110.46 126.799C110.707 126.94 110.981 127.01 111.281 127.01C111.581 127.01 111.855 126.94 112.102 126.799C112.356 126.651 112.556 126.442 112.703 126.172C112.85 125.895 112.924 125.574 112.924 125.209ZM116.228 123.461V126.313C116.228 126.548 116.278 126.716 116.378 126.816C116.478 126.91 116.652 126.957 116.899 126.957H117.491V127.637H116.767C116.319 127.637 115.984 127.534 115.76 127.328C115.536 127.122 115.425 126.784 115.425 126.313V123.461H114.798V122.799H115.425V121.581H116.228V122.799H117.491V123.461H116.228ZM119.034 122.013C118.88 122.013 118.751 121.96 118.645 121.854C118.539 121.748 118.486 121.619 118.486 121.466C118.486 121.313 118.539 121.183 118.645 121.077C118.751 120.971 118.88 120.918 119.034 120.918C119.181 120.918 119.304 120.971 119.404 121.077C119.51 121.183 119.563 121.313 119.563 121.466C119.563 121.619 119.51 121.748 119.404 121.854C119.304 121.96 119.181 122.013 119.034 122.013ZM119.422 122.799V127.637H118.619V122.799H119.422ZM123.056 127.717C122.603 127.717 122.191 127.614 121.82 127.408C121.455 127.202 121.167 126.91 120.955 126.534C120.749 126.151 120.646 125.71 120.646 125.209C120.646 124.715 120.752 124.279 120.963 123.903C121.181 123.52 121.476 123.229 121.846 123.029C122.217 122.823 122.632 122.72 123.091 122.72C123.55 122.72 123.965 122.823 124.336 123.029C124.707 123.229 124.998 123.517 125.21 123.894C125.428 124.27 125.537 124.709 125.537 125.209C125.537 125.71 125.425 126.151 125.201 126.534C124.984 126.91 124.686 127.202 124.31 127.408C123.933 127.614 123.515 127.717 123.056 127.717ZM123.056 127.01C123.344 127.01 123.615 126.943 123.868 126.807C124.121 126.672 124.324 126.469 124.477 126.198C124.636 125.927 124.716 125.598 124.716 125.209C124.716 124.821 124.639 124.491 124.486 124.22C124.333 123.95 124.133 123.75 123.886 123.62C123.639 123.485 123.371 123.417 123.082 123.417C122.788 123.417 122.517 123.485 122.27 123.62C122.029 123.75 121.835 123.95 121.687 124.22C121.54 124.491 121.467 124.821 121.467 125.209C121.467 125.604 121.537 125.936 121.679 126.207C121.826 126.478 122.02 126.681 122.261 126.816C122.503 126.946 122.768 127.01 123.056 127.01ZM129.105 122.711C129.694 122.711 130.171 122.89 130.535 123.249C130.9 123.602 131.083 124.114 131.083 124.785V127.637H130.288V124.9C130.288 124.418 130.168 124.05 129.926 123.797C129.685 123.538 129.355 123.408 128.937 123.408C128.514 123.408 128.175 123.541 127.922 123.805C127.675 124.07 127.551 124.456 127.551 124.962V127.637H126.748V122.799H127.551V123.488C127.71 123.24 127.925 123.049 128.196 122.914C128.472 122.778 128.776 122.711 129.105 122.711ZM132.806 127.69C132.653 127.69 132.523 127.637 132.417 127.531C132.311 127.425 132.258 127.296 132.258 127.143C132.258 126.99 132.311 126.86 132.417 126.754C132.523 126.648 132.653 126.595 132.806 126.595C132.953 126.595 133.077 126.648 133.177 126.754C133.283 126.86 133.336 126.99 133.336 127.143C133.336 127.296 133.283 127.425 133.177 127.531C133.077 127.637 132.953 127.69 132.806 127.69ZM140.854 121.483V122.137H139.177V127.637H138.373V122.137H136.687V121.483H140.854ZM144.399 122.711C144.764 122.711 145.094 122.79 145.388 122.949C145.682 123.102 145.912 123.335 146.077 123.647C146.247 123.959 146.333 124.338 146.333 124.785V127.637H145.538V124.9C145.538 124.418 145.417 124.05 145.176 123.797C144.935 123.538 144.605 123.408 144.187 123.408C143.763 123.408 143.425 123.541 143.172 123.805C142.925 124.07 142.801 124.456 142.801 124.962V127.637H141.998V121.104H142.801V123.488C142.96 123.24 143.178 123.049 143.454 122.914C143.737 122.778 144.052 122.711 144.399 122.711ZM147.499 125.2C147.499 124.706 147.599 124.273 147.8 123.903C148 123.526 148.273 123.235 148.621 123.029C148.974 122.823 149.365 122.72 149.795 122.72C150.219 122.72 150.587 122.811 150.898 122.993C151.21 123.176 151.443 123.405 151.596 123.682V122.799H152.408V127.637H151.596V126.737C151.437 127.019 151.199 127.255 150.881 127.443C150.569 127.625 150.204 127.717 149.786 127.717C149.356 127.717 148.968 127.611 148.621 127.399C148.273 127.187 148 126.89 147.8 126.507C147.599 126.125 147.499 125.689 147.499 125.2ZM151.596 125.209C151.596 124.844 151.522 124.527 151.375 124.256C151.228 123.985 151.028 123.779 150.775 123.638C150.528 123.491 150.254 123.417 149.954 123.417C149.654 123.417 149.38 123.488 149.133 123.629C148.885 123.77 148.688 123.976 148.541 124.247C148.394 124.518 148.32 124.836 148.32 125.2C148.32 125.571 148.394 125.895 148.541 126.172C148.688 126.442 148.885 126.651 149.133 126.799C149.38 126.94 149.654 127.01 149.954 127.01C150.254 127.01 150.528 126.94 150.775 126.799C151.028 126.651 151.228 126.442 151.375 126.172C151.522 125.895 151.596 125.574 151.596 125.209ZM156.278 122.711C156.866 122.711 157.343 122.89 157.708 123.249C158.073 123.602 158.256 124.114 158.256 124.785V127.637H157.461V124.9C157.461 124.418 157.34 124.05 157.099 123.797C156.858 123.538 156.528 123.408 156.11 123.408C155.686 123.408 155.348 123.541 155.095 123.805C154.848 124.07 154.724 124.456 154.724 124.962V127.637H153.92V122.799H154.724V123.488C154.883 123.24 155.098 123.049 155.368 122.914C155.645 122.778 155.948 122.711 156.278 122.711ZM162.424 127.637L160.526 125.501V127.637H159.722V121.104H160.526V124.944L162.389 122.799H163.51L161.232 125.209L163.519 127.637H162.424ZM171.096 122.799L168.183 129.915H167.353L168.306 127.584L166.355 122.799H167.247L168.766 126.719L170.267 122.799H171.096ZM174.169 127.717C173.716 127.717 173.303 127.614 172.933 127.408C172.568 127.202 172.279 126.91 172.067 126.534C171.861 126.151 171.758 125.71 171.758 125.209C171.758 124.715 171.864 124.279 172.076 123.903C172.294 123.52 172.588 123.229 172.959 123.029C173.33 122.823 173.745 122.72 174.204 122.72C174.663 122.72 175.078 122.823 175.449 123.029C175.82 123.229 176.111 123.517 176.323 123.894C176.541 124.27 176.65 124.709 176.65 125.209C176.65 125.71 176.538 126.151 176.314 126.534C176.096 126.91 175.799 127.202 175.422 127.408C175.046 127.614 174.628 127.717 174.169 127.717ZM174.169 127.01C174.457 127.01 174.728 126.943 174.981 126.807C175.234 126.672 175.437 126.469 175.59 126.198C175.749 125.927 175.829 125.598 175.829 125.209C175.829 124.821 175.752 124.491 175.599 124.22C175.446 123.95 175.246 123.75 174.999 123.62C174.751 123.485 174.484 123.417 174.195 123.417C173.901 123.417 173.63 123.485 173.383 123.62C173.142 123.75 172.947 123.95 172.8 124.22C172.653 124.491 172.58 124.821 172.58 125.209C172.58 125.604 172.65 125.936 172.791 126.207C172.939 126.478 173.133 126.681 173.374 126.816C173.615 126.946 173.88 127.01 174.169 127.01ZM182.151 122.799V127.637H181.348V126.922C181.195 127.169 180.98 127.364 180.704 127.505C180.433 127.64 180.133 127.708 179.803 127.708C179.426 127.708 179.088 127.631 178.788 127.478C178.487 127.319 178.249 127.084 178.072 126.772C177.902 126.46 177.816 126.08 177.816 125.633V122.799H178.611V125.527C178.611 126.004 178.732 126.372 178.973 126.631C179.214 126.884 179.544 127.01 179.962 127.01C180.392 127.01 180.73 126.878 180.977 126.613C181.224 126.348 181.348 125.963 181.348 125.457V122.799H182.151ZM183.919 127.69C183.766 127.69 183.636 127.637 183.53 127.531C183.424 127.425 183.371 127.296 183.371 127.143C183.371 126.99 183.424 126.86 183.53 126.754C183.636 126.648 183.766 126.595 183.919 126.595C184.066 126.595 184.189 126.648 184.289 126.754C184.395 126.86 184.448 126.99 184.448 127.143C184.448 127.296 184.395 127.425 184.289 127.531C184.189 127.637 184.066 127.69 183.919 127.69Z" fill="#8484A0"/>
<path d="M42.6804 82.9687L39.6079 91.1502H38.054L34.9698 82.9687H36.4059L38.831 89.7729L41.2678 82.9687H42.6804ZM44.6915 83.8045C44.4482 83.8045 44.2442 83.7221 44.0794 83.5573C43.9146 83.3924 43.8322 83.1884 43.8322 82.9451C43.8322 82.7018 43.9146 82.4978 44.0794 82.333C44.2442 82.1682 44.4482 82.0858 44.6915 82.0858C44.927 82.0858 45.1271 82.1682 45.2919 82.333C45.4567 82.4978 45.5391 82.7018 45.5391 82.9451C45.5391 83.1884 45.4567 83.3924 45.2919 83.5573C45.1271 83.7221 44.927 83.8045 44.6915 83.8045ZM45.3508 84.6638V91.1502H44.0087V84.6638H45.3508ZM49.6731 91.2562C49.163 91.2562 48.7039 91.1659 48.2958 90.9854C47.8955 90.797 47.5777 90.5459 47.3422 90.232C47.1068 89.9102 46.9812 89.5531 46.9655 89.1607H48.3546C48.3782 89.4354 48.5077 89.6669 48.7431 89.8553C48.9864 90.0358 49.2886 90.126 49.6496 90.126C50.0263 90.126 50.3166 90.0554 50.5207 89.9141C50.7326 89.765 50.8385 89.5767 50.8385 89.3491C50.8385 89.1058 50.7208 88.9253 50.4854 88.8076C50.2578 88.6899 49.8929 88.5604 49.3906 88.4191C48.904 88.2857 48.5077 88.1562 48.2016 88.0306C47.8955 87.9051 47.6287 87.7128 47.4011 87.4538C47.1814 87.1948 47.0715 86.8534 47.0715 86.4296C47.0715 86.0843 47.1735 85.7704 47.3776 85.4879C47.5816 85.1975 47.872 84.9699 48.2487 84.8051C48.6332 84.6403 49.0727 84.5579 49.5672 84.5579C50.3049 84.5579 50.8974 84.7462 51.3447 85.1229C51.7999 85.4918 52.0432 85.998 52.0746 86.6415H50.7326C50.709 86.3511 50.5913 86.1196 50.3794 85.947C50.1675 85.7743 49.8811 85.688 49.5201 85.688C49.1669 85.688 48.8962 85.7547 48.7078 85.8881C48.5195 86.0215 48.4253 86.1981 48.4253 86.4179C48.4253 86.5905 48.4881 86.7357 48.6136 86.8534C48.7392 86.9711 48.8922 87.0653 49.0727 87.1359C49.2532 87.1987 49.5201 87.2811 49.8732 87.3832C50.3441 87.5087 50.7287 87.6382 51.0269 87.7716C51.333 87.8972 51.5959 88.0856 51.8156 88.3367C52.0354 88.5878 52.1492 88.9214 52.157 89.3373C52.157 89.7062 52.055 90.0358 51.8509 90.3262C51.6469 90.6165 51.3565 90.8441 50.9798 91.0089C50.6109 91.1738 50.1754 91.2562 49.6731 91.2562ZM59.6873 84.6638V91.1502H58.3453V90.385C58.1334 90.6519 57.8548 90.8638 57.5095 91.0207C57.172 91.1698 56.811 91.2444 56.4265 91.2444C55.9164 91.2444 55.4572 91.1384 55.0492 90.9265C54.6489 90.7146 54.3311 90.4007 54.0956 89.9848C53.868 89.5688 53.7542 89.0666 53.7542 88.478V84.6638H55.0845V88.2778C55.0845 88.8586 55.2297 89.3059 55.52 89.6198C55.8104 89.9259 56.2067 90.079 56.709 90.079C57.2113 90.079 57.6076 89.9259 57.898 89.6198C58.1962 89.3059 58.3453 88.8586 58.3453 88.2778V84.6638H59.6873ZM61.2167 87.8776C61.2167 87.2262 61.3501 86.6494 61.6169 86.1471C61.8916 85.6448 62.2605 85.2563 62.7235 84.9817C63.1944 84.6991 63.7123 84.5579 64.2774 84.5579C64.7875 84.5579 65.2309 84.6599 65.6076 84.8639C65.9922 85.0601 66.2983 85.3074 66.5259 85.6056V84.6638H67.8796V91.1502H66.5259V90.1849C66.2983 90.491 65.9883 90.746 65.5959 90.9501C65.2035 91.1541 64.7561 91.2562 64.2539 91.2562C63.6967 91.2562 63.1865 91.1149 62.7235 90.8324C62.2605 90.542 61.8916 90.1417 61.6169 89.6316C61.3501 89.1136 61.2167 88.529 61.2167 87.8776ZM66.5259 87.9011C66.5259 87.4538 66.4317 87.0653 66.2433 86.7357C66.0628 86.4061 65.8235 86.1549 65.5252 85.9823C65.227 85.8096 64.9052 85.7233 64.5599 85.7233C64.2146 85.7233 63.8929 85.8096 63.5946 85.9823C63.2964 86.1471 63.0531 86.3943 62.8648 86.7239C62.6843 87.0457 62.594 87.4302 62.594 87.8776C62.594 88.3249 62.6843 88.7173 62.8648 89.0548C63.0531 89.3923 63.2964 89.6512 63.5946 89.8317C63.9007 90.0044 64.2225 90.0907 64.5599 90.0907C64.9052 90.0907 65.227 90.0044 65.5252 89.8317C65.8235 89.6591 66.0628 89.4079 66.2433 89.0783C66.4317 88.7409 66.5259 88.3485 66.5259 87.9011ZM71.1903 82.4389V91.1502H69.8483V82.4389H71.1903ZM73.8411 83.8045C73.5978 83.8045 73.3937 83.7221 73.2289 83.5573C73.0641 83.3924 72.9817 83.1884 72.9817 82.9451C72.9817 82.7018 73.0641 82.4978 73.2289 82.333C73.3937 82.1682 73.5978 82.0858 73.8411 82.0858C74.0765 82.0858 74.2766 82.1682 74.4414 82.333C74.6063 82.4978 74.6887 82.7018 74.6887 82.9451C74.6887 83.1884 74.6063 83.3924 74.4414 83.5573C74.2766 83.7221 74.0765 83.8045 73.8411 83.8045ZM74.5003 84.6638V91.1502H73.1583V84.6638H74.5003ZM77.6572 90.0554H80.6002V91.1502H76.1033V90.0554L79.0581 85.7586H76.1033V84.6638H80.6002V85.7586L77.6572 90.0554ZM81.7681 87.8776C81.7681 87.2262 81.9015 86.6494 82.1683 86.1471C82.443 85.6448 82.8118 85.2563 83.2749 84.9817C83.7458 84.6991 84.2637 84.5579 84.8288 84.5579C85.3389 84.5579 85.7823 84.6599 86.159 84.8639C86.5436 85.0601 86.8496 85.3074 87.0772 85.6056V84.6638H88.431V91.1502H87.0772V90.1849C86.8496 90.491 86.5396 90.746 86.1472 90.9501C85.7548 91.1541 85.3075 91.2562 84.8052 91.2562C84.248 91.2562 83.7379 91.1149 83.2749 90.8324C82.8118 90.542 82.443 90.1417 82.1683 89.6316C81.9015 89.1136 81.7681 88.529 81.7681 87.8776ZM87.0772 87.9011C87.0772 87.4538 86.9831 87.0653 86.7947 86.7357C86.6142 86.4061 86.3748 86.1549 86.0766 85.9823C85.7784 85.8096 85.4566 85.7233 85.1113 85.7233C84.766 85.7233 84.4442 85.8096 84.146 85.9823C83.8478 86.1471 83.6045 86.3943 83.4161 86.7239C83.2356 87.0457 83.1454 87.4302 83.1454 87.8776C83.1454 88.3249 83.2356 88.7173 83.4161 89.0548C83.6045 89.3923 83.8478 89.6512 84.146 89.8317C84.4521 90.0044 84.7738 90.0907 85.1113 90.0907C85.4566 90.0907 85.7784 90.0044 86.0766 89.8317C86.3748 89.6591 86.6142 89.4079 86.7947 89.0783C86.9831 88.7409 87.0772 88.3485 87.0772 87.9011ZM91.9654 85.7586V89.3491C91.9654 89.5924 92.0203 89.769 92.1302 89.8788C92.2479 89.9809 92.4441 90.0319 92.7188 90.0319H93.5428V91.1502H92.4834C91.8791 91.1502 91.416 91.0089 91.0943 90.7264C90.7725 90.4439 90.6116 89.9848 90.6116 89.3491V85.7586H89.8464V84.6638H90.6116V83.0511H91.9654V84.6638H93.5428V85.7586H91.9654ZM95.6685 83.8045C95.4252 83.8045 95.2212 83.7221 95.0564 83.5573C94.8916 83.3924 94.8092 83.1884 94.8092 82.9451C94.8092 82.7018 94.8916 82.4978 95.0564 82.333C95.2212 82.1682 95.4252 82.0858 95.6685 82.0858C95.904 82.0858 96.1041 82.1682 96.2689 82.333C96.4337 82.4978 96.5161 82.7018 96.5161 82.9451C96.5161 83.1884 96.4337 83.3924 96.2689 83.5573C96.1041 83.7221 95.904 83.8045 95.6685 83.8045ZM96.3277 84.6638V91.1502H94.9857V84.6638H96.3277ZM101.109 91.2562C100.497 91.2562 99.9438 91.1188 99.4494 90.8441C98.9549 90.5616 98.5665 90.1692 98.2839 89.6669C98.0014 89.1568 97.8601 88.5682 97.8601 87.9011C97.8601 87.2419 98.0053 86.6572 98.2957 86.1471C98.5861 85.637 98.9824 85.2446 99.4847 84.9699C99.9869 84.6952 100.548 84.5579 101.168 84.5579C101.788 84.5579 102.349 84.6952 102.851 84.9699C103.354 85.2446 103.75 85.637 104.04 86.1471C104.331 86.6572 104.476 87.2419 104.476 87.9011C104.476 88.5604 104.327 89.145 104.029 89.6552C103.73 90.1653 103.322 90.5616 102.804 90.8441C102.294 91.1188 101.729 91.2562 101.109 91.2562ZM101.109 90.0907C101.455 90.0907 101.776 90.0083 102.075 89.8435C102.381 89.6787 102.628 89.4315 102.816 89.1019C103.005 88.7723 103.099 88.372 103.099 87.9011C103.099 87.4302 103.008 87.0339 102.828 86.7122C102.647 86.3825 102.408 86.1353 102.11 85.9705C101.812 85.8057 101.49 85.7233 101.145 85.7233C100.799 85.7233 100.477 85.8057 100.179 85.9705C99.8888 86.1353 99.6573 86.3825 99.4847 86.7122C99.312 87.0339 99.2257 87.4302 99.2257 87.9011C99.2257 88.5996 99.4023 89.1411 99.7554 89.5257C100.116 89.9024 100.568 90.0907 101.109 90.0907ZM109.281 84.5579C109.791 84.5579 110.247 84.6638 110.647 84.8757C111.055 85.0876 111.373 85.4015 111.6 85.8175C111.828 86.2334 111.942 86.7357 111.942 87.3243V91.1502H110.612V87.5244C110.612 86.9437 110.466 86.5003 110.176 86.1942C109.886 85.8803 109.489 85.7233 108.987 85.7233C108.485 85.7233 108.084 85.8803 107.786 86.1942C107.496 86.5003 107.351 86.9437 107.351 87.5244V91.1502H106.009V84.6638H107.351V85.4055C107.57 85.1386 107.849 84.9307 108.186 84.7815C108.532 84.6324 108.897 84.5579 109.281 84.5579ZM118.454 82.9687V88.1837C118.454 88.8037 118.615 89.2706 118.936 89.5845C119.266 89.8984 119.721 90.0554 120.302 90.0554C120.891 90.0554 121.346 89.8984 121.668 89.5845C121.997 89.2706 122.162 88.8037 122.162 88.1837V82.9687H123.504V88.1601C123.504 88.8272 123.359 89.3923 123.068 89.8553C122.778 90.3183 122.39 90.6636 121.903 90.8912C121.416 91.1188 120.879 91.2326 120.29 91.2326C119.702 91.2326 119.164 91.1188 118.677 90.8912C118.199 90.6636 117.818 90.3183 117.536 89.8553C117.253 89.3923 117.112 88.8272 117.112 88.1601V82.9687H118.454ZM128.73 84.5579C129.24 84.5579 129.695 84.6638 130.096 84.8757C130.504 85.0876 130.821 85.4015 131.049 85.8175C131.277 86.2334 131.39 86.7357 131.39 87.3243V91.1502H130.06V87.5244C130.06 86.9437 129.915 86.5003 129.625 86.1942C129.334 85.8803 128.938 85.7233 128.436 85.7233C127.933 85.7233 127.533 85.8803 127.235 86.1942C126.945 86.5003 126.799 86.9437 126.799 87.5244V91.1502H125.457V84.6638H126.799V85.4055C127.019 85.1386 127.298 84.9307 127.635 84.7815C127.98 84.6324 128.345 84.5579 128.73 84.5579ZM132.861 87.8776C132.861 87.2262 132.994 86.6494 133.261 86.1471C133.536 85.6448 133.905 85.2563 134.368 84.9817C134.839 84.6991 135.357 84.5579 135.922 84.5579C136.432 84.5579 136.875 84.6599 137.252 84.8639C137.636 85.0601 137.943 85.3074 138.17 85.6056V84.6638H139.524V91.1502H138.17V90.1849C137.943 90.491 137.633 90.746 137.24 90.9501C136.848 91.1541 136.4 91.2562 135.898 91.2562C135.341 91.2562 134.831 91.1149 134.368 90.8324C133.905 90.542 133.536 90.1417 133.261 89.6316C132.994 89.1136 132.861 88.529 132.861 87.8776ZM138.17 87.9011C138.17 87.4538 138.076 87.0653 137.888 86.7357C137.707 86.4061 137.468 86.1549 137.169 85.9823C136.871 85.8096 136.549 85.7233 136.204 85.7233C135.859 85.7233 135.537 85.8096 135.239 85.9823C134.941 86.1471 134.697 86.3943 134.509 86.7239C134.329 87.0457 134.238 87.4302 134.238 87.8776C134.238 88.3249 134.329 88.7173 134.509 89.0548C134.697 89.3923 134.941 89.6512 135.239 89.8317C135.545 90.0044 135.867 90.0907 136.204 90.0907C136.549 90.0907 136.871 90.0044 137.169 89.8317C137.468 89.6591 137.707 89.4079 137.888 89.0783C138.076 88.7409 138.17 88.3485 138.17 87.9011ZM144 89.9495L145.836 84.6638H147.261L144.789 91.1502H143.188L140.727 84.6638H142.164L144 89.9495ZM148.034 87.8776C148.034 87.2262 148.167 86.6494 148.434 86.1471C148.709 85.6448 149.078 85.2563 149.541 84.9817C150.012 84.6991 150.53 84.5579 151.095 84.5579C151.605 84.5579 152.048 84.6599 152.425 84.8639C152.809 85.0601 153.116 85.3074 153.343 85.6056V84.6638H154.697V91.1502H153.343V90.1849C153.116 90.491 152.806 90.746 152.413 90.9501C152.021 91.1541 151.573 91.2562 151.071 91.2562C150.514 91.2562 150.004 91.1149 149.541 90.8324C149.078 90.542 148.709 90.1417 148.434 89.6316C148.167 89.1136 148.034 88.529 148.034 87.8776ZM153.343 87.9011C153.343 87.4538 153.249 87.0653 153.061 86.7357C152.88 86.4061 152.641 86.1549 152.343 85.9823C152.044 85.8096 151.723 85.7233 151.377 85.7233C151.032 85.7233 150.71 85.8096 150.412 85.9823C150.114 86.1471 149.87 86.3943 149.682 86.7239C149.502 87.0457 149.411 87.4302 149.411 87.8776C149.411 88.3249 149.502 88.7173 149.682 89.0548C149.87 89.3923 150.114 89.6512 150.412 89.8317C150.718 90.0044 151.04 90.0907 151.377 90.0907C151.723 90.0907 152.044 90.0044 152.343 89.8317C152.641 89.6591 152.88 89.4079 153.061 89.0783C153.249 88.7409 153.343 88.3485 153.343 87.9011ZM157.348 83.8045C157.105 83.8045 156.901 83.7221 156.736 83.5573C156.571 83.3924 156.489 83.1884 156.489 82.9451C156.489 82.7018 156.571 82.4978 156.736 82.333C156.901 82.1682 157.105 82.0858 157.348 82.0858C157.584 82.0858 157.784 82.1682 157.949 82.333C158.114 82.4978 158.196 82.7018 158.196 82.9451C158.196 83.1884 158.114 83.3924 157.949 83.5573C157.784 83.7221 157.584 83.8045 157.348 83.8045ZM158.008 84.6638V91.1502H156.666V84.6638H158.008ZM161.318 82.4389V91.1502H159.976V82.4389H161.318ZM162.838 87.8776C162.838 87.2262 162.972 86.6494 163.238 86.1471C163.513 85.6448 163.882 85.2563 164.345 84.9817C164.816 84.6991 165.334 84.5579 165.899 84.5579C166.409 84.5579 166.852 84.6599 167.229 84.8639C167.614 85.0601 167.92 85.3074 168.147 85.6056V84.6638H169.501V91.1502H168.147V90.1849C167.92 90.491 167.61 90.746 167.217 90.9501C166.825 91.1541 166.378 91.2562 165.875 91.2562C165.318 91.2562 164.808 91.1149 164.345 90.8324C163.882 90.542 163.513 90.1417 163.238 89.6316C162.972 89.1136 162.838 88.529 162.838 87.8776ZM168.147 87.9011C168.147 87.4538 168.053 87.0653 167.865 86.7357C167.684 86.4061 167.445 86.1549 167.147 85.9823C166.849 85.8096 166.527 85.7233 166.181 85.7233C165.836 85.7233 165.514 85.8096 165.216 85.9823C164.918 86.1471 164.675 86.3943 164.486 86.7239C164.306 87.0457 164.216 87.4302 164.216 87.8776C164.216 88.3249 164.306 88.7173 164.486 89.0548C164.675 89.3923 164.918 89.6512 165.216 89.8317C165.522 90.0044 165.844 90.0907 166.181 90.0907C166.527 90.0907 166.849 90.0044 167.147 89.8317C167.445 89.6591 167.684 89.4079 167.865 89.0783C168.053 88.7409 168.147 88.3485 168.147 87.9011ZM172.812 85.6291C173.039 85.3152 173.349 85.0601 173.742 84.8639C174.142 84.6599 174.586 84.5579 175.072 84.5579C175.645 84.5579 176.163 84.6952 176.626 84.9699C177.089 85.2446 177.454 85.637 177.721 86.1471C177.988 86.6494 178.121 87.2262 178.121 87.8776C178.121 88.529 177.988 89.1136 177.721 89.6316C177.454 90.1417 177.085 90.542 176.614 90.8324C176.151 91.1149 175.637 91.2562 175.072 91.2562C174.57 91.2562 174.122 91.1581 173.73 90.9619C173.346 90.7657 173.039 90.5145 172.812 90.2084V91.1502H171.47V82.4389H172.812V85.6291ZM176.755 87.8776C176.755 87.4302 176.661 87.0457 176.473 86.7239C176.292 86.3943 176.049 86.1471 175.743 85.9823C175.445 85.8096 175.123 85.7233 174.778 85.7233C174.44 85.7233 174.119 85.8096 173.812 85.9823C173.514 86.1549 173.271 86.4061 173.083 86.7357C172.902 87.0653 172.812 87.4538 172.812 87.9011C172.812 88.3485 172.902 88.7409 173.083 89.0783C173.271 89.4079 173.514 89.6591 173.812 89.8317C174.119 90.0044 174.44 90.0907 174.778 90.0907C175.123 90.0907 175.445 90.0044 175.743 89.8317C176.049 89.6512 176.292 89.3923 176.473 89.0548C176.661 88.7173 176.755 88.3249 176.755 87.8776ZM180.996 82.4389V91.1502H179.654V82.4389H180.996ZM188.909 87.7481C188.909 87.9914 188.893 88.2111 188.862 88.4073H183.906C183.945 88.9253 184.137 89.3412 184.483 89.6552C184.828 89.9691 185.252 90.126 185.754 90.126C186.476 90.126 186.986 89.8239 187.284 89.2196H188.732C188.536 89.816 188.179 90.3065 187.661 90.6911C187.151 91.0678 186.515 91.2562 185.754 91.2562C185.134 91.2562 184.577 91.1188 184.082 90.8441C183.596 90.5616 183.211 90.1692 182.929 89.6669C182.654 89.1568 182.517 88.5682 182.517 87.9011C182.517 87.234 182.65 86.6494 182.917 86.1471C183.192 85.637 183.572 85.2446 184.059 84.9699C184.553 84.6952 185.118 84.5579 185.754 84.5579C186.366 84.5579 186.912 84.6913 187.39 84.9581C187.869 85.225 188.242 85.6017 188.509 86.0882C188.776 86.567 188.909 87.1203 188.909 87.7481ZM187.508 87.3243C187.5 86.8299 187.324 86.4336 186.978 86.1353C186.633 85.8371 186.205 85.688 185.695 85.688C185.232 85.688 184.836 85.8371 184.506 86.1353C184.177 86.4257 183.98 86.822 183.918 87.3243H187.508Z" fill="#EE7DB1"/>
<path d="M131.237 59.3968L117.443 36.5199C116.885 35.6473 116.117 34.9291 115.208 34.4317C114.3 33.9343 113.281 33.6735 112.245 33.6735C111.209 33.6735 110.19 33.9343 109.282 34.4317C108.374 34.9291 107.605 35.6473 107.047 36.5199L93.2529 59.3968C92.7656 60.2091 92.5008 61.1354 92.485 62.0825C92.4692 63.0297 92.7031 63.9643 93.163 64.7923C93.6948 65.7244 94.4645 66.4986 95.3935 67.0358C96.3225 67.573 97.3775 67.8539 98.4506 67.8498H126.04C127.106 67.8612 128.156 67.5911 129.084 67.067C130.013 66.5428 130.786 65.783 131.327 64.8643C131.801 64.0276 132.042 63.0796 132.026 62.1183C132.01 61.1571 131.738 60.2175 131.237 59.3968V59.3968ZM112.245 60.6558C111.889 60.6558 111.542 60.5503 111.246 60.3527C110.95 60.1551 110.72 59.8742 110.584 59.5455C110.447 59.2169 110.412 58.8553 110.481 58.5064C110.551 58.1575 110.722 57.8371 110.973 57.5856C111.225 57.334 111.545 57.1627 111.894 57.0933C112.243 57.0239 112.605 57.0596 112.933 57.1957C113.262 57.3318 113.543 57.5623 113.741 57.8581C113.938 58.1539 114.044 58.5016 114.044 58.8573C114.044 59.3343 113.854 59.7917 113.517 60.129C113.18 60.4663 112.722 60.6558 112.245 60.6558ZM114.044 53.4618C114.044 53.9388 113.854 54.3962 113.517 54.7335C113.18 55.0708 112.722 55.2603 112.245 55.2603C111.768 55.2603 111.311 55.0708 110.973 54.7335C110.636 54.3962 110.447 53.9388 110.447 53.4618V46.2678C110.447 45.7908 110.636 45.3333 110.973 44.996C111.311 44.6587 111.768 44.4693 112.245 44.4693C112.722 44.4693 113.18 44.6587 113.517 44.996C113.854 45.3333 114.044 45.7908 114.044 46.2678V53.4618Z" fill="#EE7DB1"/>
</g>
<defs>
<filter id="filter0_d" x="0.411031" y="0.160645" width="223.178" height="155.489" filterUnits="userSpaceOnUse" color-interpolation-filters="sRGB">
<feFlood flood-opacity="0" result="BackgroundImageFix"/>
<feColorMatrix in="SourceAlpha" type="matrix" values="0 0 0 0 0 0 0 0 0 0 0 0 0 0 0 0 0 0 127 0"/>
<feOffset dy="4.90501"/>
<feGaussianBlur stdDeviation="2.4525"/>
<feColorMatrix type="matrix" values="0 0 0 0 0 0 0 0 0 0 0 0 0 0 0 0 0 0 0.15 0"/>
<feBlend mode="normal" in2="BackgroundImageFix" result="effect1_dropShadow"/>
<feBlend mode="normal" in="SourceGraphic" in2="effect1_dropShadow" result="shape"/>
</filter>
</defs>
</svg>
