<svg width="579" height="579" viewBox="0 0 579 579" fill="none" xmlns="http://www.w3.org/2000/svg">
<circle cx="289.5" cy="289.5" r="289.5" fill="#9081FF"/>
<circle cx="290" cy="290" r="222" fill="#9687FD"/>
<g filter="url(#filter0_d)">
<rect x="72" y="141" width="435" height="297" rx="10" fill="white"/>
<path d="M72 151C72 145.477 76.4772 141 82 141H497C502.523 141 507 145.477 507 151V182H72V151Z" fill="#3C4E64"/>
<circle cx="94" cy="162" r="7" fill="#FF708B"/>
<circle cx="113" cy="162" r="7" fill="#FFBA69"/>
<circle cx="132" cy="162" r="7" fill="#42CC7E"/>
<path d="M139.994 365.126C139.994 366.17 139.634 367.04 138.914 367.736C138.206 368.42 137.12 368.762 135.656 368.762H133.244V374H131.606V361.454H135.656C137.072 361.454 138.146 361.796 138.878 362.48C139.622 363.164 139.994 364.046 139.994 365.126ZM135.656 367.412C136.568 367.412 137.24 367.214 137.672 366.818C138.104 366.422 138.32 365.858 138.32 365.126C138.32 363.578 137.432 362.804 135.656 362.804H133.244V367.412H135.656ZM143.983 360.68V374H142.345V360.68H143.983ZM156.09 368.69C156.09 369.002 156.072 369.332 156.036 369.68H148.152C148.212 370.652 148.542 371.414 149.142 371.966C149.754 372.506 150.492 372.776 151.356 372.776C152.064 372.776 152.652 372.614 153.12 372.29C153.6 371.954 153.936 371.51 154.128 370.958H155.892C155.628 371.906 155.1 372.68 154.308 373.28C153.516 373.868 152.532 374.162 151.356 374.162C150.42 374.162 149.58 373.952 148.836 373.532C148.104 373.112 147.528 372.518 147.108 371.75C146.688 370.97 146.478 370.07 146.478 369.05C146.478 368.03 146.682 367.136 147.09 366.368C147.498 365.6 148.068 365.012 148.8 364.604C149.544 364.184 150.396 363.974 151.356 363.974C152.292 363.974 153.12 364.178 153.84 364.586C154.56 364.994 155.112 365.558 155.496 366.278C155.892 366.986 156.09 367.79 156.09 368.69ZM154.398 368.348C154.398 367.724 154.26 367.19 153.984 366.746C153.708 366.29 153.33 365.948 152.85 365.72C152.382 365.48 151.86 365.36 151.284 365.36C150.456 365.36 149.748 365.624 149.16 366.152C148.584 366.68 148.254 367.412 148.17 368.348H154.398ZM157.955 369.032C157.955 368.024 158.159 367.142 158.567 366.386C158.975 365.618 159.533 365.024 160.241 364.604C160.961 364.184 161.759 363.974 162.635 363.974C163.499 363.974 164.249 364.16 164.885 364.532C165.521 364.904 165.995 365.372 166.307 365.936V364.136H167.963V374H166.307V372.164C165.983 372.74 165.497 373.22 164.849 373.604C164.213 373.976 163.469 374.162 162.617 374.162C161.741 374.162 160.949 373.946 160.241 373.514C159.533 373.082 158.975 372.476 158.567 371.696C158.159 370.916 157.955 370.028 157.955 369.032ZM166.307 369.05C166.307 368.306 166.157 367.658 165.857 367.106C165.557 366.554 165.149 366.134 164.633 365.846C164.129 365.546 163.571 365.396 162.959 365.396C162.347 365.396 161.789 365.54 161.285 365.828C160.781 366.116 160.379 366.536 160.079 367.088C159.779 367.64 159.629 368.288 159.629 369.032C159.629 369.788 159.779 370.448 160.079 371.012C160.379 371.564 160.781 371.99 161.285 372.29C161.789 372.578 162.347 372.722 162.959 372.722C163.571 372.722 164.129 372.578 164.633 372.29C165.149 371.99 165.557 371.564 165.857 371.012C166.157 370.448 166.307 369.794 166.307 369.05ZM174.538 374.162C173.782 374.162 173.104 374.036 172.504 373.784C171.904 373.52 171.43 373.16 171.082 372.704C170.734 372.236 170.542 371.702 170.506 371.102H172.198C172.246 371.594 172.474 371.996 172.882 372.308C173.302 372.62 173.848 372.776 174.52 372.776C175.144 372.776 175.636 372.638 175.996 372.362C176.356 372.086 176.536 371.738 176.536 371.318C176.536 370.886 176.344 370.568 175.96 370.364C175.576 370.148 174.982 369.938 174.178 369.734C173.446 369.542 172.846 369.35 172.378 369.158C171.922 368.954 171.526 368.66 171.19 368.276C170.866 367.88 170.704 367.364 170.704 366.728C170.704 366.224 170.854 365.762 171.154 365.342C171.454 364.922 171.88 364.592 172.432 364.352C172.984 364.1 173.614 363.974 174.322 363.974C175.414 363.974 176.296 364.25 176.968 364.802C177.64 365.354 178 366.11 178.048 367.07H176.41C176.374 366.554 176.164 366.14 175.78 365.828C175.408 365.516 174.904 365.36 174.268 365.36C173.68 365.36 173.212 365.486 172.864 365.738C172.516 365.99 172.342 366.32 172.342 366.728C172.342 367.052 172.444 367.322 172.648 367.538C172.864 367.742 173.128 367.91 173.44 368.042C173.764 368.162 174.208 368.3 174.772 368.456C175.48 368.648 176.056 368.84 176.5 369.032C176.944 369.212 177.322 369.488 177.634 369.86C177.958 370.232 178.126 370.718 178.138 371.318C178.138 371.858 177.988 372.344 177.688 372.776C177.388 373.208 176.962 373.55 176.41 373.802C175.87 374.042 175.246 374.162 174.538 374.162ZM189.765 368.69C189.765 369.002 189.747 369.332 189.711 369.68H181.827C181.887 370.652 182.217 371.414 182.817 371.966C183.429 372.506 184.167 372.776 185.031 372.776C185.739 372.776 186.327 372.614 186.795 372.29C187.275 371.954 187.611 371.51 187.803 370.958H189.567C189.303 371.906 188.775 372.68 187.983 373.28C187.191 373.868 186.207 374.162 185.031 374.162C184.095 374.162 183.255 373.952 182.511 373.532C181.779 373.112 181.203 372.518 180.783 371.75C180.363 370.97 180.153 370.07 180.153 369.05C180.153 368.03 180.357 367.136 180.765 366.368C181.173 365.6 181.743 365.012 182.475 364.604C183.219 364.184 184.071 363.974 185.031 363.974C185.967 363.974 186.795 364.178 187.515 364.586C188.235 364.994 188.787 365.558 189.171 366.278C189.567 366.986 189.765 367.79 189.765 368.69ZM188.073 368.348C188.073 367.724 187.935 367.19 187.659 366.746C187.383 366.29 187.005 365.948 186.525 365.72C186.057 365.48 185.535 365.36 184.959 365.36C184.131 365.36 183.423 365.624 182.835 366.152C182.259 366.68 181.929 367.412 181.845 368.348H188.073ZM206.104 364.136V374H204.466V372.542C204.154 373.046 203.716 373.442 203.152 373.73C202.6 374.006 201.988 374.144 201.316 374.144C200.548 374.144 199.858 373.988 199.246 373.676C198.634 373.352 198.148 372.872 197.788 372.236C197.44 371.6 197.266 370.826 197.266 369.914V364.136H198.886V369.698C198.886 370.67 199.132 371.42 199.624 371.948C200.116 372.464 200.788 372.722 201.64 372.722C202.516 372.722 203.206 372.452 203.71 371.912C204.214 371.372 204.466 370.586 204.466 369.554V364.136H206.104ZM212.677 374.162C211.921 374.162 211.243 374.036 210.643 373.784C210.043 373.52 209.569 373.16 209.221 372.704C208.873 372.236 208.681 371.702 208.645 371.102H210.337C210.385 371.594 210.613 371.996 211.021 372.308C211.441 372.62 211.987 372.776 212.659 372.776C213.283 372.776 213.775 372.638 214.135 372.362C214.495 372.086 214.675 371.738 214.675 371.318C214.675 370.886 214.483 370.568 214.099 370.364C213.715 370.148 213.121 369.938 212.317 369.734C211.585 369.542 210.985 369.35 210.517 369.158C210.061 368.954 209.665 368.66 209.329 368.276C209.005 367.88 208.843 367.364 208.843 366.728C208.843 366.224 208.993 365.762 209.293 365.342C209.593 364.922 210.019 364.592 210.571 364.352C211.123 364.1 211.753 363.974 212.461 363.974C213.553 363.974 214.435 364.25 215.107 364.802C215.779 365.354 216.139 366.11 216.187 367.07H214.549C214.513 366.554 214.303 366.14 213.919 365.828C213.547 365.516 213.043 365.36 212.407 365.36C211.819 365.36 211.351 365.486 211.003 365.738C210.655 365.99 210.481 366.32 210.481 366.728C210.481 367.052 210.583 367.322 210.787 367.538C211.003 367.742 211.267 367.91 211.579 368.042C211.903 368.162 212.347 368.3 212.911 368.456C213.619 368.648 214.195 368.84 214.639 369.032C215.083 369.212 215.461 369.488 215.773 369.86C216.097 370.232 216.265 370.718 216.277 371.318C216.277 371.858 216.127 372.344 215.827 372.776C215.527 373.208 215.101 373.55 214.549 373.802C214.009 374.042 213.385 374.162 212.677 374.162ZM227.904 368.69C227.904 369.002 227.886 369.332 227.85 369.68H219.966C220.026 370.652 220.356 371.414 220.956 371.966C221.568 372.506 222.306 372.776 223.17 372.776C223.878 372.776 224.466 372.614 224.934 372.29C225.414 371.954 225.75 371.51 225.942 370.958H227.706C227.442 371.906 226.914 372.68 226.122 373.28C225.33 373.868 224.346 374.162 223.17 374.162C222.234 374.162 221.394 373.952 220.65 373.532C219.918 373.112 219.342 372.518 218.922 371.75C218.502 370.97 218.292 370.07 218.292 369.05C218.292 368.03 218.496 367.136 218.904 366.368C219.312 365.6 219.882 365.012 220.614 364.604C221.358 364.184 222.21 363.974 223.17 363.974C224.106 363.974 224.934 364.178 225.654 364.586C226.374 364.994 226.926 365.558 227.31 366.278C227.706 366.986 227.904 367.79 227.904 368.69ZM226.212 368.348C226.212 367.724 226.074 367.19 225.798 366.746C225.522 366.29 225.144 365.948 224.664 365.72C224.196 365.48 223.674 365.36 223.098 365.36C222.27 365.36 221.562 365.624 220.974 366.152C220.398 366.68 220.068 367.412 219.984 368.348H226.212ZM234.883 369.032C234.883 368.024 235.087 367.142 235.495 366.386C235.903 365.618 236.461 365.024 237.169 364.604C237.889 364.184 238.687 363.974 239.563 363.974C240.427 363.974 241.177 364.16 241.813 364.532C242.449 364.904 242.923 365.372 243.235 365.936V364.136H244.891V374H243.235V372.164C242.911 372.74 242.425 373.22 241.777 373.604C241.141 373.976 240.397 374.162 239.545 374.162C238.669 374.162 237.877 373.946 237.169 373.514C236.461 373.082 235.903 372.476 235.495 371.696C235.087 370.916 234.883 370.028 234.883 369.032ZM243.235 369.05C243.235 368.306 243.085 367.658 242.785 367.106C242.485 366.554 242.077 366.134 241.561 365.846C241.057 365.546 240.499 365.396 239.887 365.396C239.275 365.396 238.717 365.54 238.213 365.828C237.709 366.116 237.307 366.536 237.007 367.088C236.707 367.64 236.557 368.288 236.557 369.032C236.557 369.788 236.707 370.448 237.007 371.012C237.307 371.564 237.709 371.99 238.213 372.29C238.717 372.578 239.275 372.722 239.887 372.722C240.499 372.722 241.057 372.578 241.561 372.29C242.077 371.99 242.485 371.564 242.785 371.012C243.085 370.448 243.235 369.794 243.235 369.05ZM252.476 369.05C252.476 368.03 252.68 367.142 253.088 366.386C253.496 365.618 254.06 365.024 254.78 364.604C255.512 364.184 256.346 363.974 257.282 363.974C258.494 363.974 259.49 364.268 260.27 364.856C261.062 365.444 261.584 366.26 261.836 367.304H260.072C259.904 366.704 259.574 366.23 259.082 365.882C258.602 365.534 258.002 365.36 257.282 365.36C256.346 365.36 255.59 365.684 255.014 366.332C254.438 366.968 254.15 367.874 254.15 369.05C254.15 370.238 254.438 371.156 255.014 371.804C255.59 372.452 256.346 372.776 257.282 372.776C258.002 372.776 258.602 372.608 259.082 372.272C259.562 371.936 259.892 371.456 260.072 370.832H261.836C261.572 371.84 261.044 372.65 260.252 373.262C259.46 373.862 258.47 374.162 257.282 374.162C256.346 374.162 255.512 373.952 254.78 373.532C254.06 373.112 253.496 372.518 253.088 371.75C252.68 370.982 252.476 370.082 252.476 369.05ZM268.639 374.162C267.715 374.162 266.875 373.952 266.119 373.532C265.375 373.112 264.787 372.518 264.355 371.75C263.935 370.97 263.725 370.07 263.725 369.05C263.725 368.042 263.941 367.154 264.373 366.386C264.817 365.606 265.417 365.012 266.173 364.604C266.929 364.184 267.775 363.974 268.711 363.974C269.647 363.974 270.493 364.184 271.249 364.604C272.005 365.012 272.599 365.6 273.031 366.368C273.475 367.136 273.697 368.03 273.697 369.05C273.697 370.07 273.469 370.97 273.013 371.75C272.569 372.518 271.963 373.112 271.195 373.532C270.427 373.952 269.575 374.162 268.639 374.162ZM268.639 372.722C269.227 372.722 269.779 372.584 270.295 372.308C270.811 372.032 271.225 371.618 271.537 371.066C271.861 370.514 272.023 369.842 272.023 369.05C272.023 368.258 271.867 367.586 271.555 367.034C271.243 366.482 270.835 366.074 270.331 365.81C269.827 365.534 269.281 365.396 268.693 365.396C268.093 365.396 267.541 365.534 267.037 365.81C266.545 366.074 266.149 366.482 265.849 367.034C265.549 367.586 265.399 368.258 265.399 369.05C265.399 369.854 265.543 370.532 265.831 371.084C266.131 371.636 266.527 372.05 267.019 372.326C267.511 372.59 268.051 372.722 268.639 372.722ZM288.027 363.956C288.795 363.956 289.479 364.118 290.079 364.442C290.679 364.754 291.153 365.228 291.501 365.864C291.849 366.5 292.023 367.274 292.023 368.186V374H290.403V368.42C290.403 367.436 290.157 366.686 289.665 366.17C289.185 365.642 288.531 365.378 287.703 365.378C286.851 365.378 286.173 365.654 285.669 366.206C285.165 366.746 284.913 367.532 284.913 368.564V374H283.293V368.42C283.293 367.436 283.047 366.686 282.555 366.17C282.075 365.642 281.421 365.378 280.593 365.378C279.741 365.378 279.063 365.654 278.559 366.206C278.055 366.746 277.803 367.532 277.803 368.564V374H276.165V364.136H277.803V365.558C278.127 365.042 278.559 364.646 279.099 364.37C279.651 364.094 280.257 363.956 280.917 363.956C281.745 363.956 282.477 364.142 283.113 364.514C283.749 364.886 284.223 365.432 284.535 366.152C284.811 365.456 285.267 364.916 285.903 364.532C286.539 364.148 287.247 363.956 288.027 363.956ZM296.663 365.954C296.987 365.39 297.467 364.922 298.103 364.55C298.751 364.166 299.501 363.974 300.353 363.974C301.229 363.974 302.021 364.184 302.729 364.604C303.449 365.024 304.013 365.618 304.421 366.386C304.829 367.142 305.033 368.024 305.033 369.032C305.033 370.028 304.829 370.916 304.421 371.696C304.013 372.476 303.449 373.082 302.729 373.514C302.021 373.946 301.229 374.162 300.353 374.162C299.513 374.162 298.769 373.976 298.121 373.604C297.485 373.22 296.999 372.746 296.663 372.182V378.68H295.025V364.136H296.663V365.954ZM303.359 369.032C303.359 368.288 303.209 367.64 302.909 367.088C302.609 366.536 302.201 366.116 301.685 365.828C301.181 365.54 300.623 365.396 300.011 365.396C299.411 365.396 298.853 365.546 298.337 365.846C297.833 366.134 297.425 366.56 297.113 367.124C296.813 367.676 296.663 368.318 296.663 369.05C296.663 369.794 296.813 370.448 297.113 371.012C297.425 371.564 297.833 371.99 298.337 372.29C298.853 372.578 299.411 372.722 300.011 372.722C300.623 372.722 301.181 372.578 301.685 372.29C302.201 371.99 302.609 371.564 302.909 371.012C303.209 370.448 303.359 369.788 303.359 369.032ZM316.252 364.136V374H314.614V372.542C314.302 373.046 313.864 373.442 313.3 373.73C312.748 374.006 312.136 374.144 311.464 374.144C310.696 374.144 310.006 373.988 309.394 373.676C308.782 373.352 308.296 372.872 307.936 372.236C307.588 371.6 307.414 370.826 307.414 369.914V364.136H309.034V369.698C309.034 370.67 309.28 371.42 309.772 371.948C310.264 372.464 310.936 372.722 311.788 372.722C312.664 372.722 313.354 372.452 313.858 371.912C314.362 371.372 314.614 370.586 314.614 369.554V364.136H316.252ZM321.331 365.486V371.3C321.331 371.78 321.433 372.122 321.637 372.326C321.841 372.518 322.195 372.614 322.699 372.614H323.905V374H322.429C321.517 374 320.833 373.79 320.377 373.37C319.921 372.95 319.693 372.26 319.693 371.3V365.486H318.415V364.136H319.693V361.652H321.331V364.136H323.905V365.486H321.331ZM335.205 368.69C335.205 369.002 335.187 369.332 335.151 369.68H327.267C327.327 370.652 327.657 371.414 328.257 371.966C328.869 372.506 329.607 372.776 330.471 372.776C331.179 372.776 331.767 372.614 332.235 372.29C332.715 371.954 333.051 371.51 333.243 370.958H335.007C334.743 371.906 334.215 372.68 333.423 373.28C332.631 373.868 331.647 374.162 330.471 374.162C329.535 374.162 328.695 373.952 327.951 373.532C327.219 373.112 326.643 372.518 326.223 371.75C325.803 370.97 325.593 370.07 325.593 369.05C325.593 368.03 325.797 367.136 326.205 366.368C326.613 365.6 327.183 365.012 327.915 364.604C328.659 364.184 329.511 363.974 330.471 363.974C331.407 363.974 332.235 364.178 332.955 364.586C333.675 364.994 334.227 365.558 334.611 366.278C335.007 366.986 335.205 367.79 335.205 368.69ZM333.513 368.348C333.513 367.724 333.375 367.19 333.099 366.746C332.823 366.29 332.445 365.948 331.965 365.72C331.497 365.48 330.975 365.36 330.399 365.36C329.571 365.36 328.863 365.624 328.275 366.152C327.699 366.68 327.369 367.412 327.285 368.348H333.513ZM339.32 365.738C339.608 365.174 340.016 364.736 340.544 364.424C341.084 364.112 341.738 363.956 342.506 363.956V365.648H342.074C340.238 365.648 339.32 366.644 339.32 368.636V374H337.682V364.136H339.32V365.738ZM351.824 365.486V371.3C351.824 371.78 351.926 372.122 352.13 372.326C352.334 372.518 352.688 372.614 353.192 372.614H354.398V374H352.922C352.01 374 351.326 373.79 350.87 373.37C350.414 372.95 350.186 372.26 350.186 371.3V365.486H348.908V364.136H350.186V361.652H351.824V364.136H354.398V365.486H351.824ZM360.999 374.162C360.075 374.162 359.235 373.952 358.479 373.532C357.735 373.112 357.147 372.518 356.715 371.75C356.295 370.97 356.085 370.07 356.085 369.05C356.085 368.042 356.301 367.154 356.733 366.386C357.177 365.606 357.777 365.012 358.533 364.604C359.289 364.184 360.135 363.974 361.071 363.974C362.007 363.974 362.853 364.184 363.609 364.604C364.365 365.012 364.959 365.6 365.391 366.368C365.835 367.136 366.057 368.03 366.057 369.05C366.057 370.07 365.829 370.97 365.373 371.75C364.929 372.518 364.323 373.112 363.555 373.532C362.787 373.952 361.935 374.162 360.999 374.162ZM360.999 372.722C361.587 372.722 362.139 372.584 362.655 372.308C363.171 372.032 363.585 371.618 363.897 371.066C364.221 370.514 364.383 369.842 364.383 369.05C364.383 368.258 364.227 367.586 363.915 367.034C363.603 366.482 363.195 366.074 362.691 365.81C362.187 365.534 361.641 365.396 361.053 365.396C360.453 365.396 359.901 365.534 359.397 365.81C358.905 366.074 358.509 366.482 358.209 367.034C357.909 367.586 357.759 368.258 357.759 369.05C357.759 369.854 357.903 370.532 358.191 371.084C358.491 371.636 358.887 372.05 359.379 372.326C359.871 372.59 360.411 372.722 360.999 372.722ZM375.278 365.954C375.602 365.39 376.082 364.922 376.718 364.55C377.366 364.166 378.116 363.974 378.968 363.974C379.844 363.974 380.636 364.184 381.344 364.604C382.064 365.024 382.628 365.618 383.036 366.386C383.444 367.142 383.648 368.024 383.648 369.032C383.648 370.028 383.444 370.916 383.036 371.696C382.628 372.476 382.064 373.082 381.344 373.514C380.636 373.946 379.844 374.162 378.968 374.162C378.128 374.162 377.384 373.976 376.736 373.604C376.1 373.22 375.614 372.746 375.278 372.182V378.68H373.64V364.136H375.278V365.954ZM381.974 369.032C381.974 368.288 381.824 367.64 381.524 367.088C381.224 366.536 380.816 366.116 380.3 365.828C379.796 365.54 379.238 365.396 378.626 365.396C378.026 365.396 377.468 365.546 376.952 365.846C376.448 366.134 376.04 366.56 375.728 367.124C375.428 367.676 375.278 368.318 375.278 369.05C375.278 369.794 375.428 370.448 375.728 371.012C376.04 371.564 376.448 371.99 376.952 372.29C377.468 372.578 378.026 372.722 378.626 372.722C379.238 372.722 379.796 372.578 380.3 372.29C380.816 371.99 381.224 371.564 381.524 371.012C381.824 370.448 381.974 369.788 381.974 369.032ZM387.757 365.738C388.045 365.174 388.453 364.736 388.981 364.424C389.521 364.112 390.175 363.956 390.943 363.956V365.648H390.511C388.675 365.648 387.757 366.644 387.757 368.636V374H386.119V364.136H387.757V365.738ZM397.451 374.162C396.527 374.162 395.687 373.952 394.931 373.532C394.187 373.112 393.599 372.518 393.167 371.75C392.747 370.97 392.537 370.07 392.537 369.05C392.537 368.042 392.753 367.154 393.185 366.386C393.629 365.606 394.229 365.012 394.985 364.604C395.741 364.184 396.587 363.974 397.523 363.974C398.459 363.974 399.305 364.184 400.061 364.604C400.817 365.012 401.411 365.6 401.843 366.368C402.287 367.136 402.509 368.03 402.509 369.05C402.509 370.07 402.281 370.97 401.825 371.75C401.381 372.518 400.775 373.112 400.007 373.532C399.239 373.952 398.387 374.162 397.451 374.162ZM397.451 372.722C398.039 372.722 398.591 372.584 399.107 372.308C399.623 372.032 400.037 371.618 400.349 371.066C400.673 370.514 400.835 369.842 400.835 369.05C400.835 368.258 400.679 367.586 400.367 367.034C400.055 366.482 399.647 366.074 399.143 365.81C398.639 365.534 398.093 365.396 397.505 365.396C396.905 365.396 396.353 365.534 395.849 365.81C395.357 366.074 394.961 366.482 394.661 367.034C394.361 367.586 394.211 368.258 394.211 369.05C394.211 369.854 394.355 370.532 394.643 371.084C394.943 371.636 395.339 372.05 395.831 372.326C396.323 372.59 396.863 372.722 397.451 372.722ZM406.615 365.954C406.939 365.39 407.419 364.922 408.055 364.55C408.703 364.166 409.453 363.974 410.305 363.974C411.181 363.974 411.973 364.184 412.681 364.604C413.401 365.024 413.965 365.618 414.373 366.386C414.781 367.142 414.985 368.024 414.985 369.032C414.985 370.028 414.781 370.916 414.373 371.696C413.965 372.476 413.401 373.082 412.681 373.514C411.973 373.946 411.181 374.162 410.305 374.162C409.465 374.162 408.721 373.976 408.073 373.604C407.437 373.22 406.951 372.746 406.615 372.182V378.68H404.977V364.136H406.615V365.954ZM413.311 369.032C413.311 368.288 413.161 367.64 412.861 367.088C412.561 366.536 412.153 366.116 411.637 365.828C411.133 365.54 410.575 365.396 409.963 365.396C409.363 365.396 408.805 365.546 408.289 365.846C407.785 366.134 407.377 366.56 407.065 367.124C406.765 367.676 406.615 368.318 406.615 369.05C406.615 369.794 406.765 370.448 407.065 371.012C407.377 371.564 407.785 371.99 408.289 372.29C408.805 372.578 409.363 372.722 409.963 372.722C410.575 372.722 411.133 372.578 411.637 372.29C412.153 371.99 412.561 371.564 412.861 371.012C413.161 370.448 413.311 369.788 413.311 369.032ZM426.456 368.69C426.456 369.002 426.438 369.332 426.402 369.68H418.518C418.578 370.652 418.908 371.414 419.508 371.966C420.12 372.506 420.858 372.776 421.722 372.776C422.43 372.776 423.018 372.614 423.486 372.29C423.966 371.954 424.302 371.51 424.494 370.958H426.258C425.994 371.906 425.466 372.68 424.674 373.28C423.882 373.868 422.898 374.162 421.722 374.162C420.786 374.162 419.946 373.952 419.202 373.532C418.47 373.112 417.894 372.518 417.474 371.75C417.054 370.97 416.844 370.07 416.844 369.05C416.844 368.03 417.048 367.136 417.456 366.368C417.864 365.6 418.434 365.012 419.166 364.604C419.91 364.184 420.762 363.974 421.722 363.974C422.658 363.974 423.486 364.178 424.206 364.586C424.926 364.994 425.478 365.558 425.862 366.278C426.258 366.986 426.456 367.79 426.456 368.69ZM424.764 368.348C424.764 367.724 424.626 367.19 424.35 366.746C424.074 366.29 423.696 365.948 423.216 365.72C422.748 365.48 422.226 365.36 421.65 365.36C420.822 365.36 420.114 365.624 419.526 366.152C418.95 366.68 418.62 367.412 418.536 368.348H424.764ZM430.571 365.738C430.859 365.174 431.267 364.736 431.795 364.424C432.335 364.112 432.989 363.956 433.757 363.956V365.648H433.325C431.489 365.648 430.571 366.644 430.571 368.636V374H428.933V364.136H430.571V365.738ZM437.601 360.68V374H435.963V360.68H437.601ZM449.204 364.136L443.264 378.644H441.572L443.516 373.892L439.538 364.136H441.356L444.452 372.128L447.512 364.136H449.204ZM146.884 401.162C146.128 401.162 145.45 401.036 144.85 400.784C144.25 400.52 143.776 400.16 143.428 399.704C143.08 399.236 142.888 398.702 142.852 398.102H144.544C144.592 398.594 144.82 398.996 145.228 399.308C145.648 399.62 146.194 399.776 146.866 399.776C147.49 399.776 147.982 399.638 148.342 399.362C148.702 399.086 148.882 398.738 148.882 398.318C148.882 397.886 148.69 397.568 148.306 397.364C147.922 397.148 147.328 396.938 146.524 396.734C145.792 396.542 145.192 396.35 144.724 396.158C144.268 395.954 143.872 395.66 143.536 395.276C143.212 394.88 143.05 394.364 143.05 393.728C143.05 393.224 143.2 392.762 143.5 392.342C143.8 391.922 144.226 391.592 144.778 391.352C145.33 391.1 145.96 390.974 146.668 390.974C147.76 390.974 148.642 391.25 149.314 391.802C149.986 392.354 150.346 393.11 150.394 394.07H148.756C148.72 393.554 148.51 393.14 148.126 392.828C147.754 392.516 147.25 392.36 146.614 392.36C146.026 392.36 145.558 392.486 145.21 392.738C144.862 392.99 144.688 393.32 144.688 393.728C144.688 394.052 144.79 394.322 144.994 394.538C145.21 394.742 145.474 394.91 145.786 395.042C146.11 395.162 146.554 395.3 147.118 395.456C147.826 395.648 148.402 395.84 148.846 396.032C149.29 396.212 149.668 396.488 149.98 396.86C150.304 397.232 150.472 397.718 150.484 398.318C150.484 398.858 150.334 399.344 150.034 399.776C149.734 400.208 149.308 400.55 148.756 400.802C148.216 401.042 147.592 401.162 146.884 401.162ZM162.111 395.69C162.111 396.002 162.093 396.332 162.057 396.68H154.173C154.233 397.652 154.563 398.414 155.163 398.966C155.775 399.506 156.513 399.776 157.377 399.776C158.085 399.776 158.673 399.614 159.141 399.29C159.621 398.954 159.957 398.51 160.149 397.958H161.913C161.649 398.906 161.121 399.68 160.329 400.28C159.537 400.868 158.553 401.162 157.377 401.162C156.441 401.162 155.601 400.952 154.857 400.532C154.125 400.112 153.549 399.518 153.129 398.75C152.709 397.97 152.499 397.07 152.499 396.05C152.499 395.03 152.703 394.136 153.111 393.368C153.519 392.6 154.089 392.012 154.821 391.604C155.565 391.184 156.417 390.974 157.377 390.974C158.313 390.974 159.141 391.178 159.861 391.586C160.581 391.994 161.133 392.558 161.517 393.278C161.913 393.986 162.111 394.79 162.111 395.69ZM160.419 395.348C160.419 394.724 160.281 394.19 160.005 393.746C159.729 393.29 159.351 392.948 158.871 392.72C158.403 392.48 157.881 392.36 157.305 392.36C156.477 392.36 155.769 392.624 155.181 393.152C154.605 393.68 154.275 394.412 154.191 395.348H160.419ZM173.588 395.69C173.588 396.002 173.57 396.332 173.534 396.68H165.65C165.71 397.652 166.04 398.414 166.64 398.966C167.252 399.506 167.99 399.776 168.854 399.776C169.562 399.776 170.15 399.614 170.618 399.29C171.098 398.954 171.434 398.51 171.626 397.958H173.39C173.126 398.906 172.598 399.68 171.806 400.28C171.014 400.868 170.03 401.162 168.854 401.162C167.918 401.162 167.078 400.952 166.334 400.532C165.602 400.112 165.026 399.518 164.606 398.75C164.186 397.97 163.976 397.07 163.976 396.05C163.976 395.03 164.18 394.136 164.588 393.368C164.996 392.6 165.566 392.012 166.298 391.604C167.042 391.184 167.894 390.974 168.854 390.974C169.79 390.974 170.618 391.178 171.338 391.586C172.058 391.994 172.61 392.558 172.994 393.278C173.39 393.986 173.588 394.79 173.588 395.69ZM171.896 395.348C171.896 394.724 171.758 394.19 171.482 393.746C171.206 393.29 170.828 392.948 170.348 392.72C169.88 392.48 169.358 392.36 168.782 392.36C167.954 392.36 167.246 392.624 166.658 393.152C166.082 393.68 165.752 394.412 165.668 395.348H171.896ZM183.177 392.486V398.3C183.177 398.78 183.279 399.122 183.483 399.326C183.687 399.518 184.041 399.614 184.545 399.614H185.751V401H184.275C183.363 401 182.679 400.79 182.223 400.37C181.767 399.95 181.539 399.26 181.539 398.3V392.486H180.261V391.136H181.539V388.652H183.177V391.136H185.751V392.486H183.177ZM192.947 390.956C193.691 390.956 194.363 391.118 194.963 391.442C195.563 391.754 196.031 392.228 196.367 392.864C196.715 393.5 196.889 394.274 196.889 395.186V401H195.269V395.42C195.269 394.436 195.023 393.686 194.531 393.17C194.039 392.642 193.367 392.378 192.515 392.378C191.651 392.378 190.961 392.648 190.445 393.188C189.941 393.728 189.689 394.514 189.689 395.546V401H188.051V387.68H189.689V392.54C190.013 392.036 190.457 391.646 191.021 391.37C191.597 391.094 192.239 390.956 192.947 390.956ZM208.88 395.69C208.88 396.002 208.862 396.332 208.826 396.68H200.942C201.002 397.652 201.332 398.414 201.932 398.966C202.544 399.506 203.282 399.776 204.146 399.776C204.854 399.776 205.442 399.614 205.91 399.29C206.39 398.954 206.726 398.51 206.918 397.958H208.682C208.418 398.906 207.89 399.68 207.098 400.28C206.306 400.868 205.322 401.162 204.146 401.162C203.21 401.162 202.37 400.952 201.626 400.532C200.894 400.112 200.318 399.518 199.898 398.75C199.478 397.97 199.268 397.07 199.268 396.05C199.268 395.03 199.472 394.136 199.88 393.368C200.288 392.6 200.858 392.012 201.59 391.604C202.334 391.184 203.186 390.974 204.146 390.974C205.082 390.974 205.91 391.178 206.63 391.586C207.35 391.994 207.902 392.558 208.286 393.278C208.682 393.986 208.88 394.79 208.88 395.69ZM207.188 395.348C207.188 394.724 207.05 394.19 206.774 393.746C206.498 393.29 206.12 392.948 205.64 392.72C205.172 392.48 204.65 392.36 204.074 392.36C203.246 392.36 202.538 392.624 201.95 393.152C201.374 393.68 201.044 394.412 200.96 395.348H207.188ZM220.142 399.488L223.202 391.136H224.948L221.078 401H219.17L215.3 391.136H217.064L220.142 399.488ZM227.721 389.534C227.409 389.534 227.145 389.426 226.929 389.21C226.713 388.994 226.605 388.73 226.605 388.418C226.605 388.106 226.713 387.842 226.929 387.626C227.145 387.41 227.409 387.302 227.721 387.302C228.021 387.302 228.273 387.41 228.477 387.626C228.693 387.842 228.801 388.106 228.801 388.418C228.801 388.73 228.693 388.994 228.477 389.21C228.273 389.426 228.021 389.534 227.721 389.534ZM228.513 391.136V401H226.875V391.136H228.513ZM235.112 401.162C234.356 401.162 233.678 401.036 233.078 400.784C232.478 400.52 232.004 400.16 231.656 399.704C231.308 399.236 231.116 398.702 231.08 398.102H232.772C232.82 398.594 233.048 398.996 233.456 399.308C233.876 399.62 234.422 399.776 235.094 399.776C235.718 399.776 236.21 399.638 236.57 399.362C236.93 399.086 237.11 398.738 237.11 398.318C237.11 397.886 236.918 397.568 236.534 397.364C236.15 397.148 235.556 396.938 234.752 396.734C234.02 396.542 233.42 396.35 232.952 396.158C232.496 395.954 232.1 395.66 231.764 395.276C231.44 394.88 231.278 394.364 231.278 393.728C231.278 393.224 231.428 392.762 231.728 392.342C232.028 391.922 232.454 391.592 233.006 391.352C233.558 391.1 234.188 390.974 234.896 390.974C235.988 390.974 236.87 391.25 237.542 391.802C238.214 392.354 238.574 393.11 238.622 394.07H236.984C236.948 393.554 236.738 393.14 236.354 392.828C235.982 392.516 235.478 392.36 234.842 392.36C234.254 392.36 233.786 392.486 233.438 392.738C233.09 392.99 232.916 393.32 232.916 393.728C232.916 394.052 233.018 394.322 233.222 394.538C233.438 394.742 233.702 394.91 234.014 395.042C234.338 395.162 234.782 395.3 235.346 395.456C236.054 395.648 236.63 395.84 237.074 396.032C237.518 396.212 237.896 396.488 238.208 396.86C238.532 397.232 238.7 397.718 238.712 398.318C238.712 398.858 238.562 399.344 238.262 399.776C237.962 400.208 237.536 400.55 236.984 400.802C236.444 401.042 235.82 401.162 235.112 401.162ZM250.087 391.136V401H248.449V399.542C248.137 400.046 247.699 400.442 247.135 400.73C246.583 401.006 245.971 401.144 245.299 401.144C244.531 401.144 243.841 400.988 243.229 400.676C242.617 400.352 242.131 399.872 241.771 399.236C241.423 398.6 241.249 397.826 241.249 396.914V391.136H242.869V396.698C242.869 397.67 243.115 398.42 243.607 398.948C244.099 399.464 244.771 399.722 245.623 399.722C246.499 399.722 247.189 399.452 247.693 398.912C248.197 398.372 248.449 397.586 248.449 396.554V391.136H250.087ZM252.556 396.032C252.556 395.024 252.76 394.142 253.168 393.386C253.576 392.618 254.134 392.024 254.842 391.604C255.562 391.184 256.36 390.974 257.236 390.974C258.1 390.974 258.85 391.16 259.486 391.532C260.122 391.904 260.596 392.372 260.908 392.936V391.136H262.564V401H260.908V399.164C260.584 399.74 260.098 400.22 259.45 400.604C258.814 400.976 258.07 401.162 257.218 401.162C256.342 401.162 255.55 400.946 254.842 400.514C254.134 400.082 253.576 399.476 253.168 398.696C252.76 397.916 252.556 397.028 252.556 396.032ZM260.908 396.05C260.908 395.306 260.758 394.658 260.458 394.106C260.158 393.554 259.75 393.134 259.234 392.846C258.73 392.546 258.172 392.396 257.56 392.396C256.948 392.396 256.39 392.54 255.886 392.828C255.382 393.116 254.98 393.536 254.68 394.088C254.38 394.64 254.23 395.288 254.23 396.032C254.23 396.788 254.38 397.448 254.68 398.012C254.98 398.564 255.382 398.99 255.886 399.29C256.39 399.578 256.948 399.722 257.56 399.722C258.172 399.722 258.73 399.578 259.234 399.29C259.75 398.99 260.158 398.564 260.458 398.012C260.758 397.448 260.908 396.794 260.908 396.05ZM267.285 387.68V401H265.647V387.68H267.285ZM271.238 389.534C270.926 389.534 270.662 389.426 270.446 389.21C270.23 388.994 270.122 388.73 270.122 388.418C270.122 388.106 270.23 387.842 270.446 387.626C270.662 387.41 270.926 387.302 271.238 387.302C271.538 387.302 271.79 387.41 271.994 387.626C272.21 387.842 272.318 388.106 272.318 388.418C272.318 388.73 272.21 388.994 271.994 389.21C271.79 389.426 271.538 389.534 271.238 389.534ZM272.03 391.136V401H270.392V391.136H272.03ZM276.36 399.65H281.202V401H274.488V399.65L279.276 392.468H274.524V391.136H281.166V392.468L276.36 399.65ZM283.031 396.032C283.031 395.024 283.235 394.142 283.643 393.386C284.051 392.618 284.609 392.024 285.317 391.604C286.037 391.184 286.835 390.974 287.711 390.974C288.575 390.974 289.325 391.16 289.961 391.532C290.597 391.904 291.071 392.372 291.383 392.936V391.136H293.039V401H291.383V399.164C291.059 399.74 290.573 400.22 289.925 400.604C289.289 400.976 288.545 401.162 287.693 401.162C286.817 401.162 286.025 400.946 285.317 400.514C284.609 400.082 284.051 399.476 283.643 398.696C283.235 397.916 283.031 397.028 283.031 396.032ZM291.383 396.05C291.383 395.306 291.233 394.658 290.933 394.106C290.633 393.554 290.225 393.134 289.709 392.846C289.205 392.546 288.647 392.396 288.035 392.396C287.423 392.396 286.865 392.54 286.361 392.828C285.857 393.116 285.455 393.536 285.155 394.088C284.855 394.64 284.705 395.288 284.705 396.032C284.705 396.788 284.855 397.448 285.155 398.012C285.455 398.564 285.857 398.99 286.361 399.29C286.865 399.578 287.423 399.722 288.035 399.722C288.647 399.722 289.205 399.578 289.709 399.29C290.225 398.99 290.633 398.564 290.933 398.012C291.233 397.448 291.383 396.794 291.383 396.05ZM298.12 392.486V398.3C298.12 398.78 298.222 399.122 298.426 399.326C298.63 399.518 298.984 399.614 299.488 399.614H300.694V401H299.218C298.306 401 297.622 400.79 297.166 400.37C296.71 399.95 296.482 399.26 296.482 398.3V392.486H295.204V391.136H296.482V388.652H298.12V391.136H300.694V392.486H298.12ZM303.84 389.534C303.528 389.534 303.264 389.426 303.048 389.21C302.832 388.994 302.724 388.73 302.724 388.418C302.724 388.106 302.832 387.842 303.048 387.626C303.264 387.41 303.528 387.302 303.84 387.302C304.14 387.302 304.392 387.41 304.596 387.626C304.812 387.842 304.92 388.106 304.92 388.418C304.92 388.73 304.812 388.994 304.596 389.21C304.392 389.426 304.14 389.534 303.84 389.534ZM304.632 391.136V401H302.994V391.136H304.632ZM312.04 401.162C311.116 401.162 310.276 400.952 309.52 400.532C308.776 400.112 308.188 399.518 307.756 398.75C307.336 397.97 307.126 397.07 307.126 396.05C307.126 395.042 307.342 394.154 307.774 393.386C308.218 392.606 308.818 392.012 309.574 391.604C310.33 391.184 311.176 390.974 312.112 390.974C313.048 390.974 313.894 391.184 314.65 391.604C315.406 392.012 316 392.6 316.432 393.368C316.876 394.136 317.098 395.03 317.098 396.05C317.098 397.07 316.87 397.97 316.414 398.75C315.97 399.518 315.364 400.112 314.596 400.532C313.828 400.952 312.976 401.162 312.04 401.162ZM312.04 399.722C312.628 399.722 313.18 399.584 313.696 399.308C314.212 399.032 314.626 398.618 314.938 398.066C315.262 397.514 315.424 396.842 315.424 396.05C315.424 395.258 315.268 394.586 314.956 394.034C314.644 393.482 314.236 393.074 313.732 392.81C313.228 392.534 312.682 392.396 312.094 392.396C311.494 392.396 310.942 392.534 310.438 392.81C309.946 393.074 309.55 393.482 309.25 394.034C308.95 394.586 308.8 395.258 308.8 396.05C308.8 396.854 308.944 397.532 309.232 398.084C309.532 398.636 309.928 399.05 310.42 399.326C310.912 399.59 311.452 399.722 312.04 399.722ZM324.373 390.956C325.573 390.956 326.545 391.322 327.289 392.054C328.033 392.774 328.405 393.818 328.405 395.186V401H326.785V395.42C326.785 394.436 326.539 393.686 326.047 393.17C325.555 392.642 324.883 392.378 324.031 392.378C323.167 392.378 322.477 392.648 321.961 393.188C321.457 393.728 321.205 394.514 321.205 395.546V401H319.567V391.136H321.205V392.54C321.529 392.036 321.967 391.646 322.519 391.37C323.083 391.094 323.701 390.956 324.373 390.956ZM331.918 401.108C331.606 401.108 331.342 401 331.126 400.784C330.91 400.568 330.802 400.304 330.802 399.992C330.802 399.68 330.91 399.416 331.126 399.2C331.342 398.984 331.606 398.876 331.918 398.876C332.218 398.876 332.47 398.984 332.674 399.2C332.89 399.416 332.998 399.68 332.998 399.992C332.998 400.304 332.89 400.568 332.674 400.784C332.47 401 332.218 401.108 331.918 401.108ZM348.326 388.454V389.786H344.906V401H343.268V389.786H339.83V388.454H348.326ZM355.553 390.956C356.297 390.956 356.969 391.118 357.569 391.442C358.169 391.754 358.637 392.228 358.973 392.864C359.321 393.5 359.495 394.274 359.495 395.186V401H357.875V395.42C357.875 394.436 357.629 393.686 357.137 393.17C356.645 392.642 355.973 392.378 355.121 392.378C354.257 392.378 353.567 392.648 353.051 393.188C352.547 393.728 352.295 394.514 352.295 395.546V401H350.657V387.68H352.295V392.54C352.619 392.036 353.063 391.646 353.627 391.37C354.203 391.094 354.845 390.956 355.553 390.956ZM361.874 396.032C361.874 395.024 362.078 394.142 362.486 393.386C362.894 392.618 363.452 392.024 364.16 391.604C364.88 391.184 365.678 390.974 366.554 390.974C367.418 390.974 368.168 391.16 368.804 391.532C369.44 391.904 369.914 392.372 370.226 392.936V391.136H371.882V401H370.226V399.164C369.902 399.74 369.416 400.22 368.768 400.604C368.132 400.976 367.388 401.162 366.536 401.162C365.66 401.162 364.868 400.946 364.16 400.514C363.452 400.082 362.894 399.476 362.486 398.696C362.078 397.916 361.874 397.028 361.874 396.032ZM370.226 396.05C370.226 395.306 370.076 394.658 369.776 394.106C369.476 393.554 369.068 393.134 368.552 392.846C368.048 392.546 367.49 392.396 366.878 392.396C366.266 392.396 365.708 392.54 365.204 392.828C364.7 393.116 364.298 393.536 363.998 394.088C363.698 394.64 363.548 395.288 363.548 396.032C363.548 396.788 363.698 397.448 363.998 398.012C364.298 398.564 364.7 398.99 365.204 399.29C365.708 399.578 366.266 399.722 366.878 399.722C367.49 399.722 368.048 399.578 368.552 399.29C369.068 398.99 369.476 398.564 369.776 398.012C370.076 397.448 370.226 396.794 370.226 396.05ZM379.771 390.956C380.971 390.956 381.943 391.322 382.687 392.054C383.431 392.774 383.803 393.818 383.803 395.186V401H382.183V395.42C382.183 394.436 381.937 393.686 381.445 393.17C380.953 392.642 380.281 392.378 379.429 392.378C378.565 392.378 377.875 392.648 377.359 393.188C376.855 393.728 376.603 394.514 376.603 395.546V401H374.965V391.136H376.603V392.54C376.927 392.036 377.365 391.646 377.917 391.37C378.481 391.094 379.099 390.956 379.771 390.956ZM392.301 401L388.431 396.644V401H386.793V387.68H388.431V395.51L392.229 391.136H394.515L389.871 396.05L394.533 401H392.301ZM409.982 391.136L404.042 405.644H402.35L404.294 400.892L400.316 391.136H402.134L405.23 399.128L408.29 391.136H409.982ZM416.245 401.162C415.321 401.162 414.481 400.952 413.725 400.532C412.981 400.112 412.393 399.518 411.961 398.75C411.541 397.97 411.331 397.07 411.331 396.05C411.331 395.042 411.547 394.154 411.979 393.386C412.423 392.606 413.023 392.012 413.779 391.604C414.535 391.184 415.381 390.974 416.317 390.974C417.253 390.974 418.099 391.184 418.855 391.604C419.611 392.012 420.205 392.6 420.637 393.368C421.081 394.136 421.303 395.03 421.303 396.05C421.303 397.07 421.075 397.97 420.619 398.75C420.175 399.518 419.569 400.112 418.801 400.532C418.033 400.952 417.181 401.162 416.245 401.162ZM416.245 399.722C416.833 399.722 417.385 399.584 417.901 399.308C418.417 399.032 418.831 398.618 419.143 398.066C419.467 397.514 419.629 396.842 419.629 396.05C419.629 395.258 419.473 394.586 419.161 394.034C418.849 393.482 418.441 393.074 417.937 392.81C417.433 392.534 416.887 392.396 416.299 392.396C415.699 392.396 415.147 392.534 414.643 392.81C414.151 393.074 413.755 393.482 413.455 394.034C413.155 394.586 413.005 395.258 413.005 396.05C413.005 396.854 413.149 397.532 413.437 398.084C413.737 398.636 414.133 399.05 414.625 399.326C415.117 399.59 415.657 399.722 416.245 399.722ZM432.52 391.136V401H430.882V399.542C430.57 400.046 430.132 400.442 429.568 400.73C429.016 401.006 428.404 401.144 427.732 401.144C426.964 401.144 426.274 400.988 425.662 400.676C425.05 400.352 424.564 399.872 424.204 399.236C423.856 398.6 423.682 397.826 423.682 396.914V391.136H425.302V396.698C425.302 397.67 425.548 398.42 426.04 398.948C426.532 399.464 427.204 399.722 428.056 399.722C428.932 399.722 429.622 399.452 430.126 398.912C430.63 398.372 430.882 397.586 430.882 396.554V391.136H432.52ZM436.123 401.108C435.811 401.108 435.547 401 435.331 400.784C435.115 400.568 435.007 400.304 435.007 399.992C435.007 399.68 435.115 399.416 435.331 399.2C435.547 398.984 435.811 398.876 436.123 398.876C436.423 398.876 436.675 398.984 436.879 399.2C437.095 399.416 437.203 399.68 437.203 399.992C437.203 400.304 437.095 400.568 436.879 400.784C436.675 401 436.423 401.108 436.123 401.108Z" fill="#8484A0"/>
<path d="M148.176 309.32L141.912 326H138.744L132.456 309.32H135.384L140.328 323.192L145.296 309.32H148.176ZM152.276 311.024C151.78 311.024 151.364 310.856 151.028 310.52C150.692 310.184 150.524 309.768 150.524 309.272C150.524 308.776 150.692 308.36 151.028 308.024C151.364 307.688 151.78 307.52 152.276 307.52C152.756 307.52 153.164 307.688 153.5 308.024C153.836 308.36 154.004 308.776 154.004 309.272C154.004 309.768 153.836 310.184 153.5 310.52C153.164 310.856 152.756 311.024 152.276 311.024ZM153.62 312.776V326H150.884V312.776H153.62ZM162.432 326.216C161.392 326.216 160.456 326.032 159.624 325.664C158.808 325.28 158.16 324.768 157.68 324.128C157.2 323.472 156.944 322.744 156.912 321.944H159.744C159.792 322.504 160.056 322.976 160.536 323.36C161.032 323.728 161.648 323.912 162.384 323.912C163.152 323.912 163.744 323.768 164.16 323.48C164.592 323.176 164.808 322.792 164.808 322.328C164.808 321.832 164.568 321.464 164.088 321.224C163.624 320.984 162.88 320.72 161.856 320.432C160.864 320.16 160.056 319.896 159.432 319.64C158.808 319.384 158.264 318.992 157.8 318.464C157.352 317.936 157.128 317.24 157.128 316.376C157.128 315.672 157.336 315.032 157.752 314.456C158.168 313.864 158.76 313.4 159.528 313.064C160.312 312.728 161.208 312.56 162.216 312.56C163.72 312.56 164.928 312.944 165.84 313.712C166.768 314.464 167.264 315.496 167.328 316.808H164.592C164.544 316.216 164.304 315.744 163.872 315.392C163.44 315.04 162.856 314.864 162.12 314.864C161.4 314.864 160.848 315 160.464 315.272C160.08 315.544 159.888 315.904 159.888 316.352C159.888 316.704 160.016 317 160.272 317.24C160.528 317.48 160.84 317.672 161.208 317.816C161.576 317.944 162.12 318.112 162.84 318.32C163.8 318.576 164.584 318.84 165.192 319.112C165.816 319.368 166.352 319.752 166.8 320.264C167.248 320.776 167.48 321.456 167.496 322.304C167.496 323.056 167.288 323.728 166.872 324.32C166.456 324.912 165.864 325.376 165.096 325.712C164.344 326.048 163.456 326.216 162.432 326.216ZM182.848 312.776V326H180.112V324.44C179.68 324.984 179.112 325.416 178.408 325.736C177.72 326.04 176.984 326.192 176.2 326.192C175.16 326.192 174.224 325.976 173.392 325.544C172.576 325.112 171.928 324.472 171.448 323.624C170.984 322.776 170.752 321.752 170.752 320.552V312.776H173.464V320.144C173.464 321.328 173.76 322.24 174.352 322.88C174.944 323.504 175.752 323.816 176.776 323.816C177.8 323.816 178.608 323.504 179.2 322.88C179.808 322.24 180.112 321.328 180.112 320.144V312.776H182.848ZM185.966 319.328C185.966 318 186.238 316.824 186.782 315.8C187.342 314.776 188.094 313.984 189.038 313.424C189.998 312.848 191.054 312.56 192.206 312.56C193.246 312.56 194.15 312.768 194.918 313.184C195.702 313.584 196.326 314.088 196.79 314.696V312.776H199.55V326H196.79V324.032C196.326 324.656 195.694 325.176 194.894 325.592C194.094 326.008 193.182 326.216 192.158 326.216C191.022 326.216 189.982 325.928 189.038 325.352C188.094 324.76 187.342 323.944 186.782 322.904C186.238 321.848 185.966 320.656 185.966 319.328ZM196.79 319.376C196.79 318.464 196.598 317.672 196.214 317C195.846 316.328 195.358 315.816 194.75 315.464C194.142 315.112 193.486 314.936 192.782 314.936C192.078 314.936 191.422 315.112 190.814 315.464C190.206 315.8 189.71 316.304 189.326 316.976C188.958 317.632 188.774 318.416 188.774 319.328C188.774 320.24 188.958 321.04 189.326 321.728C189.71 322.416 190.206 322.944 190.814 323.312C191.438 323.664 192.094 323.84 192.782 323.84C193.486 323.84 194.142 323.664 194.75 323.312C195.358 322.96 195.846 322.448 196.214 321.776C196.598 321.088 196.79 320.288 196.79 319.376ZM206.3 308.24V326H203.564V308.24H206.3ZM211.704 311.024C211.208 311.024 210.792 310.856 210.456 310.52C210.12 310.184 209.952 309.768 209.952 309.272C209.952 308.776 210.12 308.36 210.456 308.024C210.792 307.688 211.208 307.52 211.704 307.52C212.184 307.52 212.592 307.688 212.928 308.024C213.264 308.36 213.432 308.776 213.432 309.272C213.432 309.768 213.264 310.184 212.928 310.52C212.592 310.856 212.184 311.024 211.704 311.024ZM213.048 312.776V326H210.312V312.776H213.048ZM219.484 323.768H225.484V326H216.316V323.768L222.34 315.008H216.316V312.776H225.484V315.008L219.484 323.768ZM227.865 319.328C227.865 318 228.137 316.824 228.681 315.8C229.241 314.776 229.993 313.984 230.937 313.424C231.897 312.848 232.953 312.56 234.105 312.56C235.145 312.56 236.049 312.768 236.817 313.184C237.601 313.584 238.225 314.088 238.689 314.696V312.776H241.449V326H238.689V324.032C238.225 324.656 237.593 325.176 236.793 325.592C235.993 326.008 235.081 326.216 234.057 326.216C232.921 326.216 231.881 325.928 230.937 325.352C229.993 324.76 229.241 323.944 228.681 322.904C228.137 321.848 227.865 320.656 227.865 319.328ZM238.689 319.376C238.689 318.464 238.497 317.672 238.113 317C237.745 316.328 237.257 315.816 236.649 315.464C236.041 315.112 235.385 314.936 234.681 314.936C233.977 314.936 233.321 315.112 232.713 315.464C232.105 315.8 231.609 316.304 231.225 316.976C230.857 317.632 230.673 318.416 230.673 319.328C230.673 320.24 230.857 321.04 231.225 321.728C231.609 322.416 232.105 322.944 232.713 323.312C233.337 323.664 233.993 323.84 234.681 323.84C235.385 323.84 236.041 323.664 236.649 323.312C237.257 322.96 237.745 322.448 238.113 321.776C238.497 321.088 238.689 320.288 238.689 319.376ZM248.655 315.008V322.328C248.655 322.824 248.767 323.184 248.991 323.408C249.231 323.616 249.631 323.72 250.191 323.72H251.871V326H249.711C248.479 326 247.535 325.712 246.879 325.136C246.223 324.56 245.895 323.624 245.895 322.328V315.008H244.335V312.776H245.895V309.488H248.655V312.776H251.871V315.008H248.655ZM256.204 311.024C255.708 311.024 255.292 310.856 254.956 310.52C254.62 310.184 254.452 309.768 254.452 309.272C254.452 308.776 254.62 308.36 254.956 308.024C255.292 307.688 255.708 307.52 256.204 307.52C256.684 307.52 257.092 307.688 257.428 308.024C257.764 308.36 257.932 308.776 257.932 309.272C257.932 309.768 257.764 310.184 257.428 310.52C257.092 310.856 256.684 311.024 256.204 311.024ZM257.548 312.776V326H254.812V312.776H257.548ZM267.297 326.216C266.049 326.216 264.921 325.936 263.913 325.376C262.905 324.8 262.113 324 261.537 322.976C260.961 321.936 260.673 320.736 260.673 319.376C260.673 318.032 260.969 316.84 261.561 315.8C262.153 314.76 262.961 313.96 263.985 313.4C265.009 312.84 266.153 312.56 267.417 312.56C268.681 312.56 269.825 312.84 270.849 313.4C271.873 313.96 272.681 314.76 273.273 315.8C273.865 316.84 274.161 318.032 274.161 319.376C274.161 320.72 273.857 321.912 273.249 322.952C272.641 323.992 271.809 324.8 270.753 325.376C269.713 325.936 268.561 326.216 267.297 326.216ZM267.297 323.84C268.001 323.84 268.657 323.672 269.265 323.336C269.889 323 270.393 322.496 270.777 321.824C271.161 321.152 271.353 320.336 271.353 319.376C271.353 318.416 271.169 317.608 270.801 316.952C270.433 316.28 269.945 315.776 269.337 315.44C268.729 315.104 268.073 314.936 267.369 314.936C266.665 314.936 266.009 315.104 265.401 315.44C264.809 315.776 264.337 316.28 263.985 316.952C263.633 317.608 263.457 318.416 263.457 319.376C263.457 320.8 263.817 321.904 264.537 322.688C265.273 323.456 266.193 323.84 267.297 323.84ZM283.957 312.56C284.997 312.56 285.925 312.776 286.741 313.208C287.573 313.64 288.221 314.28 288.685 315.128C289.149 315.976 289.381 317 289.381 318.2V326H286.669V318.608C286.669 317.424 286.373 316.52 285.781 315.896C285.189 315.256 284.381 314.936 283.357 314.936C282.333 314.936 281.517 315.256 280.909 315.896C280.317 316.52 280.021 317.424 280.021 318.608V326H277.285V312.776H280.021V314.288C280.469 313.744 281.037 313.32 281.725 313.016C282.429 312.712 283.173 312.56 283.957 312.56ZM302.658 309.32V319.952C302.658 321.216 302.986 322.168 303.642 322.808C304.314 323.448 305.242 323.768 306.426 323.768C307.626 323.768 308.554 323.448 309.21 322.808C309.882 322.168 310.218 321.216 310.218 319.952V309.32H312.954V319.904C312.954 321.264 312.658 322.416 312.066 323.36C311.474 324.304 310.682 325.008 309.69 325.472C308.698 325.936 307.602 326.168 306.402 326.168C305.202 326.168 304.106 325.936 303.114 325.472C302.138 325.008 301.362 324.304 300.786 323.36C300.21 322.416 299.922 321.264 299.922 319.904V309.32H302.658ZM323.608 312.56C324.648 312.56 325.576 312.776 326.392 313.208C327.224 313.64 327.872 314.28 328.336 315.128C328.8 315.976 329.032 317 329.032 318.2V326H326.32V318.608C326.32 317.424 326.024 316.52 325.432 315.896C324.84 315.256 324.032 314.936 323.008 314.936C321.984 314.936 321.168 315.256 320.56 315.896C319.968 316.52 319.672 317.424 319.672 318.608V326H316.936V312.776H319.672V314.288C320.12 313.744 320.688 313.32 321.376 313.016C322.08 312.712 322.824 312.56 323.608 312.56ZM332.03 319.328C332.03 318 332.302 316.824 332.846 315.8C333.406 314.776 334.158 313.984 335.102 313.424C336.062 312.848 337.118 312.56 338.27 312.56C339.31 312.56 340.214 312.768 340.982 313.184C341.766 313.584 342.39 314.088 342.854 314.696V312.776H345.614V326H342.854V324.032C342.39 324.656 341.758 325.176 340.958 325.592C340.158 326.008 339.246 326.216 338.222 326.216C337.086 326.216 336.046 325.928 335.102 325.352C334.158 324.76 333.406 323.944 332.846 322.904C332.302 321.848 332.03 320.656 332.03 319.328ZM342.854 319.376C342.854 318.464 342.662 317.672 342.278 317C341.91 316.328 341.422 315.816 340.814 315.464C340.206 315.112 339.55 314.936 338.846 314.936C338.142 314.936 337.486 315.112 336.878 315.464C336.27 315.8 335.774 316.304 335.39 316.976C335.022 317.632 334.838 318.416 334.838 319.328C334.838 320.24 335.022 321.04 335.39 321.728C335.774 322.416 336.27 322.944 336.878 323.312C337.502 323.664 338.158 323.84 338.846 323.84C339.55 323.84 340.206 323.664 340.814 323.312C341.422 322.96 341.91 322.448 342.278 321.776C342.662 321.088 342.854 320.288 342.854 319.376ZM354.739 323.552L358.484 312.776H361.387L356.347 326H353.083L348.067 312.776H350.995L354.739 323.552ZM362.964 319.328C362.964 318 363.236 316.824 363.78 315.8C364.34 314.776 365.092 313.984 366.036 313.424C366.996 312.848 368.052 312.56 369.204 312.56C370.244 312.56 371.148 312.768 371.916 313.184C372.7 313.584 373.324 314.088 373.788 314.696V312.776H376.548V326H373.788V324.032C373.324 324.656 372.692 325.176 371.892 325.592C371.092 326.008 370.18 326.216 369.156 326.216C368.02 326.216 366.98 325.928 366.036 325.352C365.092 324.76 364.34 323.944 363.78 322.904C363.236 321.848 362.964 320.656 362.964 319.328ZM373.788 319.376C373.788 318.464 373.596 317.672 373.212 317C372.844 316.328 372.356 315.816 371.748 315.464C371.14 315.112 370.484 314.936 369.78 314.936C369.076 314.936 368.42 315.112 367.812 315.464C367.204 315.8 366.708 316.304 366.324 316.976C365.956 317.632 365.772 318.416 365.772 319.328C365.772 320.24 365.956 321.04 366.324 321.728C366.708 322.416 367.204 322.944 367.812 323.312C368.436 323.664 369.092 323.84 369.78 323.84C370.484 323.84 371.14 323.664 371.748 323.312C372.356 322.96 372.844 322.448 373.212 321.776C373.596 321.088 373.788 320.288 373.788 319.376ZM381.953 311.024C381.457 311.024 381.041 310.856 380.705 310.52C380.369 310.184 380.201 309.768 380.201 309.272C380.201 308.776 380.369 308.36 380.705 308.024C381.041 307.688 381.457 307.52 381.953 307.52C382.433 307.52 382.841 307.688 383.177 308.024C383.513 308.36 383.681 308.776 383.681 309.272C383.681 309.768 383.513 310.184 383.177 310.52C382.841 310.856 382.433 311.024 381.953 311.024ZM383.297 312.776V326H380.561V312.776H383.297ZM390.045 308.24V326H387.309V308.24H390.045ZM393.146 319.328C393.146 318 393.418 316.824 393.962 315.8C394.522 314.776 395.274 313.984 396.218 313.424C397.178 312.848 398.234 312.56 399.386 312.56C400.426 312.56 401.33 312.768 402.098 313.184C402.882 313.584 403.506 314.088 403.97 314.696V312.776H406.73V326H403.97V324.032C403.506 324.656 402.874 325.176 402.074 325.592C401.274 326.008 400.362 326.216 399.338 326.216C398.202 326.216 397.162 325.928 396.218 325.352C395.274 324.76 394.522 323.944 393.962 322.904C393.418 321.848 393.146 320.656 393.146 319.328ZM403.97 319.376C403.97 318.464 403.778 317.672 403.394 317C403.026 316.328 402.538 315.816 401.93 315.464C401.322 315.112 400.666 314.936 399.962 314.936C399.258 314.936 398.602 315.112 397.994 315.464C397.386 315.8 396.89 316.304 396.506 316.976C396.138 317.632 395.954 318.416 395.954 319.328C395.954 320.24 396.138 321.04 396.506 321.728C396.89 322.416 397.386 322.944 397.994 323.312C398.618 323.664 399.274 323.84 399.962 323.84C400.666 323.84 401.322 323.664 401.93 323.312C402.538 322.96 403.026 322.448 403.394 321.776C403.778 321.088 403.97 320.288 403.97 319.376ZM413.479 314.744C413.943 314.104 414.575 313.584 415.375 313.184C416.191 312.768 417.095 312.56 418.087 312.56C419.255 312.56 420.311 312.84 421.255 313.4C422.199 313.96 422.943 314.76 423.487 315.8C424.031 316.824 424.303 318 424.303 319.328C424.303 320.656 424.031 321.848 423.487 322.904C422.943 323.944 422.191 324.76 421.231 325.352C420.287 325.928 419.239 326.216 418.087 326.216C417.063 326.216 416.151 326.016 415.351 325.616C414.567 325.216 413.943 324.704 413.479 324.08V326H410.743V308.24H413.479V314.744ZM421.519 319.328C421.519 318.416 421.327 317.632 420.943 316.976C420.575 316.304 420.079 315.8 419.455 315.464C418.847 315.112 418.191 314.936 417.487 314.936C416.799 314.936 416.143 315.112 415.519 315.464C414.911 315.816 414.415 316.328 414.031 317C413.663 317.672 413.479 318.464 413.479 319.376C413.479 320.288 413.663 321.088 414.031 321.776C414.415 322.448 414.911 322.96 415.519 323.312C416.143 323.664 416.799 323.84 417.487 323.84C418.191 323.84 418.847 323.664 419.455 323.312C420.079 322.944 420.575 322.416 420.943 321.728C421.327 321.04 421.519 320.24 421.519 319.328ZM430.165 308.24V326H427.429V308.24H430.165ZM446.297 319.064C446.297 319.56 446.265 320.008 446.201 320.408H436.097C436.177 321.464 436.569 322.312 437.273 322.952C437.977 323.592 438.841 323.912 439.865 323.912C441.337 323.912 442.377 323.296 442.985 322.064H445.937C445.537 323.28 444.809 324.28 443.753 325.064C442.713 325.832 441.417 326.216 439.865 326.216C438.601 326.216 437.465 325.936 436.457 325.376C435.465 324.8 434.681 324 434.105 322.976C433.545 321.936 433.265 320.736 433.265 319.376C433.265 318.016 433.537 316.824 434.081 315.8C434.641 314.76 435.417 313.96 436.409 313.4C437.417 312.84 438.569 312.56 439.865 312.56C441.113 312.56 442.225 312.832 443.201 313.376C444.177 313.92 444.937 314.688 445.481 315.68C446.025 316.656 446.297 317.784 446.297 319.064ZM443.441 318.2C443.425 317.192 443.065 316.384 442.361 315.776C441.657 315.168 440.785 314.864 439.745 314.864C438.801 314.864 437.993 315.168 437.321 315.776C436.649 316.368 436.249 317.176 436.121 318.2H443.441Z" fill="#FF708B"/>
<path d="M328.72 261.767L300.597 215.127C299.459 213.348 297.893 211.884 296.041 210.869C294.189 209.855 292.111 209.324 290 209.324C287.888 209.324 285.811 209.855 283.959 210.869C282.107 211.884 280.54 213.348 279.403 215.127L251.28 261.767C250.286 263.423 249.746 265.311 249.714 267.242C249.682 269.173 250.159 271.078 251.097 272.767C252.181 274.667 253.75 276.245 255.644 277.341C257.538 278.436 259.689 279.008 261.877 279H318.123C320.297 279.023 322.438 278.473 324.33 277.404C326.223 276.335 327.8 274.786 328.903 272.913C329.869 271.208 330.36 269.275 330.328 267.315C330.296 265.355 329.741 263.44 328.72 261.767ZM290 264.333C289.275 264.333 288.566 264.118 287.963 263.715C287.36 263.313 286.89 262.74 286.612 262.07C286.335 261.4 286.262 260.663 286.404 259.951C286.545 259.24 286.894 258.587 287.407 258.074C287.92 257.561 288.573 257.212 289.285 257.07C289.996 256.929 290.733 257.002 291.403 257.279C292.073 257.557 292.646 258.027 293.049 258.63C293.452 259.233 293.667 259.941 293.667 260.667C293.667 261.639 293.28 262.572 292.593 263.259C291.905 263.947 290.972 264.333 290 264.333ZM293.667 249.667C293.667 250.639 293.28 251.572 292.593 252.259C291.905 252.947 290.972 253.333 290 253.333C289.027 253.333 288.095 252.947 287.407 252.259C286.72 251.572 286.333 250.639 286.333 249.667V235C286.333 234.028 286.72 233.095 287.407 232.407C288.095 231.72 289.027 231.333 290 231.333C290.972 231.333 291.905 231.72 292.593 232.407C293.28 233.095 293.667 234.028 293.667 235V249.667Z" fill="#FF708B"/>
</g>
<defs>
<filter id="filter0_d" x="62" y="141" width="455" height="317" filterUnits="userSpaceOnUse" color-interpolation-filters="sRGB">
<feFlood flood-opacity="0" result="BackgroundImageFix"/>
<feColorMatrix in="SourceAlpha" type="matrix" values="0 0 0 0 0 0 0 0 0 0 0 0 0 0 0 0 0 0 127 0"/>
<feOffset dy="10"/>
<feGaussianBlur stdDeviation="5"/>
<feColorMatrix type="matrix" values="0 0 0 0 0 0 0 0 0 0 0 0 0 0 0 0 0 0 0.15 0"/>
<feBlend mode="normal" in2="BackgroundImageFix" result="effect1_dropShadow"/>
<feBlend mode="normal" in="SourceGraphic" in2="effect1_dropShadow" result="shape"/>
</filter>
</defs>
</svg>
