<?xml version="1.0" standalone="no"?>
<!DOCTYPE svg PUBLIC "-//W3C//DTD SVG 20010904//EN"
 "http://www.w3.org/TR/2001/REC-SVG-20010904/DTD/svg10.dtd">
<svg version="1.0" xmlns="http://www.w3.org/2000/svg"
 width="295.000000pt" height="295.000000pt" viewBox="0 0 295.000000 295.000000"
 preserveAspectRatio="xMidYMid meet">
<metadata>
Created by potrace 1.11, written by Peter Selinger 2001-2013
</metadata>
<g transform="translate(0.000000,295.000000) scale(0.100000,-0.100000)"
fill="#000000" stroke="none">
<path d="M1172 2269 c-67 -20 -101 -71 -196 -289 -49 -113 -109 -251 -133
-307 l-45 -103 -130 0 c-142 0 -175 -9 -196 -55 -16 -34 -15 -60 2 -94 24 -45
51 -51 246 -51 174 0 179 1 207 24 21 18 64 107 168 350 98 229 142 320 147
308 4 -9 68 -297 142 -640 81 -374 142 -635 153 -655 11 -17 38 -45 62 -62 78
-55 209 -36 266 39 13 17 82 166 154 331 l130 300 138 5 c76 3 146 9 156 14
21 10 47 57 47 86 0 33 -26 75 -55 88 -17 8 -87 12 -205 12 -174 0 -179 -1
-207 -24 -21 -18 -64 -108 -168 -350 -98 -226 -142 -320 -147 -308 -4 9 -68
297 -142 640 -81 374 -142 635 -153 655 -30 51 -91 87 -154 92 -29 2 -69 0
-87 -6z"/>
</g>
</svg>
